<svg width="360" height="360" viewBox="0 0 360 360" fill="none" xmlns="http://www.w3.org/2000/svg">
<rect x="30" y="30" width="300" height="300" rx="150" fill="#DA552F"/>
<path d="M55.8195 187.562L56.2416 185.663C56.4129 184.892 56.6992 184.151 57.0909 183.466C58.0015 181.872 59.4429 180.646 61.1615 180.002C62.0459 179.67 62.9838 179.5 63.9284 179.5H64.9882C65.9901 179.5 66.9859 179.655 67.9406 179.958L74.0313 181.896C75.9301 182.5 77.9526 181.416 78.5 179.5L111.5 38.5L245 26L296.5 103.5L280.5 231.5V237.5C280.5 244.15 279.843 250.785 278.539 257.306L278.485 257.577C277.496 262.519 276.149 267.383 274.454 272.129L269.5 286L262.5 302L255 317.5L251.315 323.212C247.142 329.68 241.791 335.306 235.541 339.799C231.199 342.92 226.468 345.46 221.468 347.357L214.5 350L210.884 351.411C200.089 355.624 188.05 355.295 177.5 350.5L162 343.5L139.503 332.449C135.506 330.486 131.656 328.236 127.984 325.717C120.043 320.273 113.002 313.621 107.115 306.002L104.022 301.999C100.691 297.688 97.9848 292.928 95.9844 287.86L95.8398 287.494C92.9781 280.245 91.6609 272.478 91.9724 264.69C91.9898 264.255 91.804 263.837 91.4697 263.558L83 256.5L82.0007 255.634C77.6821 251.891 73.8217 247.65 70.5 243C66.5289 237.374 63.5432 231.114 61.6705 224.488L58 211.5L55.5 200.5L55.3597 199.097C55.1204 196.704 55.0928 194.294 55.2772 191.896L55.387 190.468C55.4623 189.491 55.6068 188.52 55.8195 187.562Z" fill="#F2DCCC" stroke="#15061F" stroke-width="5"/>
<path d="M203 172.5C206 157.5 245 148.5 261.5 150.5L290.5 149.5L295 169L278.5 175.5L229.5 168.5C217.5 166.5 202.428 175.359 203 172.5Z" fill="#15061F" stroke="#15061F" stroke-width="5"/>
<path d="M180.5 171C165.5 162.5 120 160.5 109 162L122 149L147.5 153C174.5 152.5 191 175.5 180.5 171Z" fill="#15061F" stroke="#15061F" stroke-width="5"/>
<path d="M166.241 4.0955L169.4 4.33846C179.343 5.10327 189.009 8.07632 197.667 13.0238C198.181 13.3178 198.815 13.3134 199.325 13.0113C207.672 8.06485 217.008 5.02301 226.667 4.10311L233 3.5C245.194 1.89557 257.536 5.05973 267.454 12.3328L270.9 14.86C273.297 16.6174 275.555 18.5553 277.657 20.6567L278.297 21.2966C286.631 29.6313 292.733 39.9302 296.04 51.2438L298.312 59.0163C299.769 63.9982 300.842 69.084 301.523 74.2294L302.586 82.2585C304.192 94.3939 304.68 106.651 304.045 118.876L303 139L301.5 157.5L296.954 176.592C296.81 177.2 295.974 177.272 295.728 176.698L293.283 170.993C287.955 158.561 275.73 150.5 262.204 150.5C255.239 150.5 248.443 148.348 242.746 144.34L239.551 142.091C238.65 141.457 238.323 140.274 238.77 139.267L241.144 133.926C243.039 129.663 244.335 125.157 244.995 120.538C245.987 113.589 245.523 106.509 243.63 99.7491L243 97.5L242.313 95.4402C240.118 88.854 236.906 82.6517 232.793 77.0584L230.735 74.2601C227.93 70.4442 224.536 67.0974 220.682 64.3444L216.879 61.6282C211.755 57.9677 205.615 56 199.317 56C198.876 56 198.529 56.3753 198.564 56.8145L199.424 67.7853C200.134 76.831 198.968 85.9257 196 94.5L191.5 107.5L188.681 116.391C186.258 124.031 182.136 131.023 176.625 136.841C170.316 143.5 162.389 148.409 153.617 151.089L149 152.5L105.5 164L98.1649 166.096C89.3657 168.61 81.8037 174.282 76.9278 182.026C76.5319 182.655 75.5946 182.588 75.2928 181.909L72 174.5L64 147C58.7335 128.896 57.5854 109.843 60.64 91.2383L61.5 86L62.4152 73.4916C62.8025 68.1985 64.0407 63.0024 66.0819 58.1034L66.7212 56.5691C70.7767 46.8358 78.1343 38.8443 87.5 34L99.3129 27.7461C102.762 25.9199 106.022 23.755 109.042 21.2834L113.971 17.2507C118.579 13.4808 124.082 10.964 129.947 9.94399C131.647 9.64841 133.322 9.22609 134.958 8.68057L138.449 7.51685C142.475 6.175 146.613 5.19813 150.814 4.59804C155.923 3.86821 161.096 3.69969 166.241 4.0955Z" fill="#1A2434" stroke="#15061F" stroke-width="5"/>
<path d="M195.958 29.0525C193.407 27.4823 190.053 26.8575 187.186 26.0635C180.817 24.2996 174.535 23.0462 168.018 22.0349C161.743 21.0613 156.013 20.6398 149.791 21.4176C139.651 22.6852 129.468 26.5592 121.006 32.3014C113.655 37.2893 105.979 42.5123 101.675 50.6902C97.7425 58.162 92.6484 65.1592 90.5638 73.4975C86.727 88.8446 83.0913 103.644 83.0913 119.632C83.0913 132.312 81.3369 145.022 81.3369 157.709" stroke="#15061F" stroke-width="5" stroke-linecap="round"/>
<path d="M201.806 47.7658C195.132 47.7658 188.612 46.5962 181.923 46.5962C176.382 46.5962 168.938 46.9177 165.256 51.8269C162.497 55.5057 161.395 59.2983 159.571 63.5555C155.964 71.9708 153.748 81.047 150.474 89.6117C146.814 99.1819 142.729 108.551 137.445 117.357C133.015 124.741 127.622 135.223 120.259 140.132C118.219 141.492 101.274 155.423 99.4658 153.615" stroke="#15061F" stroke-width="5" stroke-linecap="round"/>
<path d="M203.56 36.6548C185.349 38.6783 166.062 35.0887 147.971 39.6113C141.482 41.2337 136.934 45.0331 132.149 49.6179C126.279 55.2432 121.386 60.8973 117.139 67.7793C110.919 77.8607 107.716 89.3977 104.761 100.723C103.748 104.607 102.861 107.692 100.667 111.12C98.7744 114.077 95.3217 116.338 94.2021 119.697" stroke="#15061F" stroke-width="5" stroke-linecap="round"/>
<path d="M208.823 49.5203C213.606 49.5203 218.642 49.1159 223.281 50.4625C230.898 52.6738 236.028 57.2412 242.157 62.0936C246.859 65.8162 249.937 73.5099 251.774 79.0204C253.859 85.2764 256.691 91.6791 257.329 98.3838C257.629 101.527 258.494 104.601 258.986 107.741C259.39 110.315 259.146 113.251 259.831 115.733C260.678 118.802 261.695 122.439 262.04 125.545C262.264 127.56 263.894 130.347 265.094 131.848C265.96 132.929 268.82 140.208 267.303 134.901" stroke="#15061F" stroke-width="5" stroke-linecap="round"/>
<path d="M214.087 33.1461C225.45 33.1461 237.889 32.5092 247.291 39.7414C259.748 49.3241 268.81 65.3903 273.412 80.4501C276.789 91.5022 279.746 102.637 282.964 113.719C284.275 118.235 285.424 122.713 286.472 127.299C286.97 129.478 288.357 135.967 288.357 133.732" stroke="#15061F" stroke-width="5" stroke-linecap="round"/>
<path d="M211.163 22.0345C212.341 21.9167 213.129 21.1296 214.12 20.5725C216.495 19.2362 219.419 18.787 222.079 18.3957C228.45 17.4589 234.617 17.8329 240.988 17.9409C248.344 18.0655 255.279 18.5491 261.196 23.0741C269.923 29.7473 275.006 38.0222 279.877 47.7658C285.795 59.6002 288.726 73.1159 290.729 86.1353C292.047 94.7055 295.959 103.385 295.959 112.094" stroke="#15061F" stroke-width="5" stroke-linecap="round"/>
<path d="M170.5 242C170.334 247.167 173.5 256 182.5 257.5C192.869 259.228 209.134 257.688 216.501 253C222.001 249.5 233.501 235 229.001 228.5" stroke="#15061F" stroke-width="5"/>
<path d="M80.962 236.449C80.8763 235.762 79.8333 234.426 79.4009 233.811C76.9318 230.297 74.4138 225.428 73.7218 221.161C72.7944 215.442 72.8924 210.272 74.6638 204.958" stroke="#15061F" stroke-width="5" stroke-linecap="round"/>
<path d="M187.5 211.5C187.5 232.733 167.681 250.5 142.5 250.5C117.319 250.5 97.5 232.733 97.5 211.5C97.5 190.267 117.319 172.5 142.5 172.5C167.681 172.5 187.5 190.267 187.5 211.5Z" fill="white" stroke="#15061F" stroke-width="5"/>
<path d="M302.5 198.5C302.5 219.733 282.681 237.5 257.5 237.5C232.319 237.5 212.5 219.733 212.5 198.5C212.5 177.267 232.319 159.5 257.5 159.5C282.681 159.5 302.5 177.267 302.5 198.5Z" fill="white" stroke="#15061F" stroke-width="5"/>
<path d="M187 206.5C191.5 204.667 200.5 197.5 212.5 203.5" stroke="#15061F" stroke-width="5"/>
<path d="M302.5 200C302.5 191.667 300.8 171.6 298 170" stroke="#15061F" stroke-width="5"/>
<path d="M75 181C86.2258 188.712 99.5 211 97.5 207.5" stroke="#15061F" stroke-width="5"/>
<ellipse cx="250.5" cy="195.5" rx="11.5" ry="10.5" fill="#1A2434"/>
<ellipse cx="142.5" cy="204.5" rx="11.5" ry="10.5" fill="#1A2434"/>
<path d="M146 311C177.5 314 240.5 288.5 257.5 254.5" stroke="#15061F" stroke-width="5" stroke-linecap="round"/>
</svg>
