<svg viewBox="0 0 32 32" fill="none" xmlns="http://www.w3.org/2000/svg">
<path d="M25.3333 24C25.3333 21.0545 22.9455 18.6667 20 18.6667C17.0545 18.6667 14.6667 21.0545 14.6667 24C14.6667 26.9455 17.0545 29.3333 20 29.3333C22.9455 29.3333 25.3333 26.9455 25.3333 24Z" stroke="currentColor" stroke-width="2.66667" stroke-linecap="round" stroke-linejoin="round"/>
<path d="M25.3333 8.00001C25.3333 5.05449 22.9455 2.66668 20 2.66668C17.0545 2.66668 14.6667 5.05449 14.6667 8.00001C14.6667 10.9455 17.0545 13.3333 20 13.3333C22.9455 13.3333 25.3333 10.9455 25.3333 8.00001Z" stroke="currentColor" stroke-width="2.66667" stroke-linecap="round" stroke-linejoin="round"/>
<path d="M20 24L10.6667 21.3333V11.3333M6.66667 24V20M20 8L6.66667 12V6.66667M6.66667 6.66667V6C6.66667 5.46957 6.87739 4.96086 7.25246 4.58579C7.62753 4.21071 8.13624 4 8.66667 4C9.1971 4 9.70581 4.21071 10.0809 4.58579C10.456 4.96086 10.6667 5.46957 10.6667 6V6.66667" stroke="currentColor" stroke-width="2.66667" stroke-linecap="round" stroke-linejoin="round"/>
</svg>
