<svg width="32" height="32" viewBox="0 0 32 32" fill="none" xmlns="http://www.w3.org/2000/svg">
<path d="M15.999 29.998C25.333 29.998 29.998 23.73 29.998 15.998C29.998 8.268 25.333 2 15.998 2C6.665 2 2 8.268 2 15.999C2 23.73 6.664 29.998 15.999 29.998Z" fill="url(#paint0_radial_212_274)"/>
<path d="M15.999 29.998C25.333 29.998 29.998 23.73 29.998 15.998C29.998 8.268 25.333 2 15.998 2C6.665 2 2 8.268 2 15.999C2 23.73 6.664 29.998 15.999 29.998Z" fill="url(#paint1_radial_212_274)"/>
<path d="M15.999 29.998C25.333 29.998 29.998 23.73 29.998 15.998C29.998 8.268 25.333 2 15.998 2C6.665 2 2 8.268 2 15.999C2 23.73 6.664 29.998 15.999 29.998Z" fill="url(#paint2_radial_212_274)"/>
<path d="M15.999 29.998C25.333 29.998 29.998 23.73 29.998 15.998C29.998 8.268 25.333 2 15.998 2C6.665 2 2 8.268 2 15.999C2 23.73 6.664 29.998 15.999 29.998Z" fill="url(#paint3_radial_212_274)" fill-opacity="0.6"/>
<path d="M15.999 29.998C25.333 29.998 29.998 23.73 29.998 15.998C29.998 8.268 25.333 2 15.998 2C6.665 2 2 8.268 2 15.999C2 23.73 6.664 29.998 15.999 29.998Z" fill="url(#paint4_radial_212_274)"/>
<path d="M15.999 29.998C25.333 29.998 29.998 23.73 29.998 15.998C29.998 8.268 25.333 2 15.998 2C6.665 2 2 8.268 2 15.999C2 23.73 6.664 29.998 15.999 29.998Z" fill="url(#paint5_radial_212_274)"/>
<path d="M15.999 29.998C25.333 29.998 29.998 23.73 29.998 15.998C29.998 8.268 25.333 2 15.998 2C6.665 2 2 8.268 2 15.999C2 23.73 6.664 29.998 15.999 29.998Z" fill="url(#paint6_radial_212_274)"/>
<path d="M15.999 29.998C25.333 29.998 29.998 23.73 29.998 15.998C29.998 8.268 25.333 2 15.998 2C6.665 2 2 8.268 2 15.999C2 23.73 6.664 29.998 15.999 29.998Z" fill="url(#paint7_radial_212_274)"/>
<path fill-rule="evenodd" clip-rule="evenodd" d="M10.75 6C10.9489 6 11.1397 6.07902 11.2803 6.21967C11.421 6.36032 11.5 6.55109 11.5 6.75V7.55C12.0647 7.66527 12.5722 7.97209 12.9367 8.41855C13.3011 8.86501 13.5001 9.42367 13.5 10V10.25C13.5 10.4489 13.421 10.6397 13.2803 10.7803C13.1397 10.921 12.9489 11 12.75 11C12.5511 11 12.3603 10.921 12.2197 10.7803C12.079 10.6397 12 10.4489 12 10.25V10C12 9.73478 11.8946 9.48043 11.7071 9.29289C11.5196 9.10536 11.2652 9 11 9H10.5C10.2348 9 9.98043 9.10536 9.79289 9.29289C9.60536 9.48043 9.5 9.73478 9.5 10V10.205C9.50007 10.4487 9.58912 10.684 9.75043 10.8666C9.91173 11.0493 10.1342 11.1668 10.376 11.197L11.31 11.314C11.9145 11.3895 12.4707 11.6832 12.8739 12.1399C13.2772 12.5966 13.4998 13.1848 13.5 13.794V14C13.5001 14.5763 13.3011 15.135 12.9367 15.5815C12.5722 16.0279 12.0647 16.3347 11.5 16.45V17.25C11.5 17.4489 11.421 17.6397 11.2803 17.7803C11.1397 17.921 10.9489 18 10.75 18C10.5511 18 10.3603 17.921 10.2197 17.7803C10.079 17.6397 10 17.4489 10 17.25V16.45C9.43532 16.3347 8.9278 16.0279 8.56335 15.5815C8.19889 15.135 7.99988 14.5763 8 14V13.75C8 13.5511 8.07902 13.3603 8.21967 13.2197C8.36032 13.079 8.55109 13 8.75 13C8.94891 13 9.13968 13.079 9.28033 13.2197C9.42098 13.3603 9.5 13.5511 9.5 13.75V14C9.5 14.2652 9.60536 14.5196 9.79289 14.7071C9.98043 14.8946 10.2348 15 10.5 15H11C11.2652 15 11.5196 14.8946 11.7071 14.7071C11.8946 14.5196 12 14.2652 12 14V13.795C11.9999 13.5513 11.9109 13.316 11.7496 13.1334C11.5883 12.9507 11.3658 12.8332 11.124 12.803L10.19 12.686C9.58547 12.6105 9.02933 12.3168 8.62607 11.8601C8.2228 11.4034 8.00017 10.8152 8 10.206V10C7.99988 9.42367 8.19889 8.86501 8.56335 8.41855C8.9278 7.97209 9.43532 7.66527 10 7.55V6.75C10 6.55109 10.079 6.36032 10.2197 6.21967C10.3603 6.07902 10.5511 6 10.75 6ZM21.25 6C21.4489 6 21.6397 6.07902 21.7803 6.21967C21.921 6.36032 22 6.55109 22 6.75V7.55C22.5647 7.66527 23.0722 7.97209 23.4367 8.41855C23.8011 8.86501 24.0001 9.42367 24 10V10.25C24 10.4489 23.921 10.6397 23.7803 10.7803C23.6397 10.921 23.4489 11 23.25 11C23.0511 11 22.8603 10.921 22.7197 10.7803C22.579 10.6397 22.5 10.4489 22.5 10.25V10C22.5 9.73478 22.3946 9.48043 22.2071 9.29289C22.0196 9.10536 21.7652 9 21.5 9H21C20.7348 9 20.4804 9.10536 20.2929 9.29289C20.1054 9.48043 20 9.73478 20 10V10.205C20.0001 10.4487 20.0891 10.684 20.2504 10.8666C20.4117 11.0493 20.6342 11.1668 20.876 11.197L21.81 11.314C22.4145 11.3895 22.9707 11.6832 23.3739 12.1399C23.7772 12.5966 23.9998 13.1848 24 13.794V14C24.0001 14.5763 23.8011 15.135 23.4367 15.5815C23.0722 16.0279 22.5647 16.3347 22 16.45V17.25C22 17.4489 21.921 17.6397 21.7803 17.7803C21.6397 17.921 21.4489 18 21.25 18C21.0511 18 20.8603 17.921 20.7197 17.7803C20.579 17.6397 20.5 17.4489 20.5 17.25V16.45C19.9353 16.3347 19.4278 16.0279 19.0633 15.5815C18.6989 15.135 18.4999 14.5763 18.5 14V13.75C18.5 13.5511 18.579 13.3603 18.7197 13.2197C18.8603 13.079 19.0511 13 19.25 13C19.4489 13 19.6397 13.079 19.7803 13.2197C19.921 13.3603 20 13.5511 20 13.75V14C20 14.2652 20.1054 14.5196 20.2929 14.7071C20.4804 14.8946 20.7348 15 21 15H21.5C21.7652 15 22.0196 14.8946 22.2071 14.7071C22.3946 14.5196 22.5 14.2652 22.5 14V13.795C22.4999 13.5513 22.4109 13.316 22.2496 13.1334C22.0883 12.9507 21.8658 12.8332 21.624 12.803L20.69 12.686C20.0855 12.6105 19.5293 12.3168 19.1261 11.8601C18.7228 11.4034 18.5002 10.8152 18.5 10.206V10C18.4999 9.42367 18.6989 8.86501 19.0633 8.41855C19.4278 7.97209 19.9353 7.66527 20.5 7.55V6.75C20.5 6.55109 20.579 6.36032 20.7197 6.21967C20.8603 6.07902 21.0511 6 21.25 6V6Z" fill="#402A32"/>
<path d="M15.999 26C8.99902 26 8.99902 19 8.99902 19H22.999C22.999 19 22.999 26 15.999 26V26Z" fill="url(#paint8_radial_212_274)"/>
<g filter="url(#filter0_i_212_274)">
<path d="M16.015 31.0001C21.015 31.0001 20.885 24.8001 21.015 23.7501C21.115 22.9001 20.665 22.4701 20.175 22.1801C19.685 21.8901 18.215 21.6201 16.015 21.6201C13.815 21.6201 12.355 21.8901 11.855 22.1801C11.355 22.4701 10.905 22.9001 11.015 23.7501C11.145 24.8001 11.015 31.0001 16.015 31.0001Z" fill="url(#paint9_radial_212_274)"/>
</g>
<g opacity="0.5" filter="url(#filter1_f_212_274)">
<path d="M18 26.5C19 26 20 25 20 23.5" stroke="#71FCB2"/>
</g>
<path d="M22.859 20.43C22.949 19.97 22.999 19.49 22.999 19H8.99902C8.99902 19.49 9.04902 19.96 9.13902 20.43H22.859Z" fill="url(#paint10_linear_212_274)"/>
<path fill-rule="evenodd" clip-rule="evenodd" d="M15.849 30.998C15.527 30.9527 15.2168 30.8461 14.935 30.684C13.235 29.702 13.009 26.914 14.429 24.454C15.226 23.074 16.372 22.09 17.524 21.667C18.889 21.757 19.808 21.962 20.175 22.18C20.665 22.47 21.115 22.9 21.015 23.75C20.9997 23.8994 20.9881 24.0491 20.98 24.199C20.897 25.423 20.709 28.232 19.087 29.831C18.605 30.245 18.087 30.561 17.567 30.764C17.0129 30.9442 16.431 31.0234 15.849 30.998V30.998Z" fill="url(#paint11_radial_212_274)"/>
<path fill-rule="evenodd" clip-rule="evenodd" d="M16 22.5C16.1326 22.5 16.2598 22.5527 16.3536 22.6464C16.4473 22.7402 16.5 22.8674 16.5 23V23.5C16.5 23.5278 16.4976 23.5556 16.493 23.583C16.7872 23.6854 17.0423 23.8768 17.2227 24.1308C17.4032 24.3847 17.5001 24.6885 17.5 25C17.5 25.1326 17.4473 25.2598 17.3536 25.3536C17.2598 25.4473 17.1326 25.5 17 25.5C16.8674 25.5 16.7402 25.4473 16.6465 25.3536C16.5527 25.2598 16.5 25.1326 16.5 25C16.5 24.8674 16.4473 24.7402 16.3536 24.6464C16.2598 24.5527 16.1326 24.5 16 24.5H15.927C15.8309 24.5002 15.7376 24.5328 15.6623 24.5926C15.587 24.6523 15.5341 24.7358 15.5121 24.8294C15.4901 24.923 15.5004 25.0212 15.5412 25.1083C15.582 25.1953 15.651 25.266 15.737 25.309L16.711 25.797C16.966 25.9242 17.177 26.1249 17.3169 26.3731C17.4569 26.6213 17.5193 26.9057 17.4962 27.1897C17.473 27.4737 17.3654 27.7443 17.1872 27.9666C17.0089 28.1889 16.7682 28.3527 16.496 28.437C16.499 28.457 16.5 28.478 16.5 28.5V29C16.5 29.1326 16.4473 29.2598 16.3536 29.3536C16.2598 29.4473 16.1326 29.5 16 29.5C15.8674 29.5 15.7402 29.4473 15.6465 29.3536C15.5527 29.2598 15.5 29.1326 15.5 29V28.5C15.5 28.472 15.502 28.444 15.507 28.417C15.2128 28.3146 14.9578 28.1232 14.7773 27.8692C14.5969 27.6153 14.4999 27.3115 14.5 27C14.5 26.8674 14.5527 26.7402 14.6465 26.6464C14.7402 26.5527 14.8674 26.5 15 26.5C15.1326 26.5 15.2598 26.5527 15.3536 26.6464C15.4473 26.7402 15.5 26.8674 15.5 27C15.5 27.1326 15.5527 27.2598 15.6465 27.3536C15.7402 27.4473 15.8674 27.5 16 27.5H16.073C16.1691 27.4998 16.2624 27.4672 16.3377 27.4074C16.413 27.3477 16.4659 27.2642 16.4879 27.1706C16.5099 27.077 16.4996 26.9788 16.4588 26.8917C16.418 26.8047 16.349 26.734 16.263 26.691L15.289 26.203C15.0341 26.0758 14.823 25.8751 14.6831 25.6269C14.5431 25.3787 14.4807 25.0943 14.5039 24.8103C14.527 24.5263 14.6346 24.2557 14.8129 24.0334C14.9911 23.8111 15.2318 23.6473 15.504 23.563C15.5014 23.5421 15.5001 23.5211 15.5 23.5V23C15.5 22.8674 15.5527 22.7402 15.6465 22.6464C15.7402 22.5527 15.8674 22.5 16 22.5Z" fill="#402A32"/>
<defs>
<filter id="filter0_i_212_274" x="10.9983" y="21.6201" width="11.0308" height="10.3799" filterUnits="userSpaceOnUse" color-interpolation-filters="sRGB">
<feFlood flood-opacity="0" result="BackgroundImageFix"/>
<feBlend mode="normal" in="SourceGraphic" in2="BackgroundImageFix" result="shape"/>
<feColorMatrix in="SourceAlpha" type="matrix" values="0 0 0 0 0 0 0 0 0 0 0 0 0 0 0 0 0 0 127 0" result="hardAlpha"/>
<feOffset dx="1" dy="1"/>
<feGaussianBlur stdDeviation="1"/>
<feComposite in2="hardAlpha" operator="arithmetic" k2="-1" k3="1"/>
<feColorMatrix type="matrix" values="0 0 0 0 0 0 0 0 0 0 0 0 0 0 0 0 0 0 0.24 0"/>
<feBlend mode="normal" in2="shape" result="effect1_innerShadow_212_274"/>
</filter>
<filter id="filter1_f_212_274" x="16.7764" y="22.5" width="4.72363" height="5.44727" filterUnits="userSpaceOnUse" color-interpolation-filters="sRGB">
<feFlood flood-opacity="0" result="BackgroundImageFix"/>
<feBlend mode="normal" in="SourceGraphic" in2="BackgroundImageFix" result="shape"/>
<feGaussianBlur stdDeviation="0.5" result="effect1_foregroundBlur_212_274"/>
</filter>
<radialGradient id="paint0_radial_212_274" cx="0" cy="0" r="1" gradientUnits="userSpaceOnUse" gradientTransform="translate(25.5002 8.99958) rotate(132.839) scale(37.5033)">
<stop stop-color="#FFF478"/>
<stop offset="0.475" stop-color="#FFB02E"/>
<stop offset="1" stop-color="#F70A8D"/>
</radialGradient>
<radialGradient id="paint1_radial_212_274" cx="0" cy="0" r="1" gradientUnits="userSpaceOnUse" gradientTransform="translate(25.4988 9.00064) rotate(131.878) scale(38.9487)">
<stop stop-color="#FFF478"/>
<stop offset="0.475" stop-color="#FFB02E"/>
<stop offset="1" stop-color="#F70A8D"/>
</radialGradient>
<radialGradient id="paint2_radial_212_274" cx="0" cy="0" r="1" gradientUnits="userSpaceOnUse" gradientTransform="translate(15.9993 12.4997) rotate(101.31) scale(17.8466 22.8581)">
<stop offset="0.788" stop-color="#F59639" stop-opacity="0"/>
<stop offset="0.973" stop-color="#FF7DCE"/>
</radialGradient>
<radialGradient id="paint3_radial_212_274" cx="0" cy="0" r="1" gradientUnits="userSpaceOnUse" gradientTransform="translate(18 14) rotate(135) scale(41.0122)">
<stop offset="0.315" stop-opacity="0"/>
<stop offset="1"/>
</radialGradient>
<radialGradient id="paint4_radial_212_274" cx="0" cy="0" r="1" gradientUnits="userSpaceOnUse" gradientTransform="translate(16 17.0008) rotate(77.692) scale(28.1469)">
<stop offset="0.508" stop-color="#7D6133" stop-opacity="0"/>
<stop offset="1" stop-color="#715B32"/>
</radialGradient>
<radialGradient id="paint5_radial_212_274" cx="0" cy="0" r="1" gradientUnits="userSpaceOnUse" gradientTransform="translate(16.5 16.5) rotate(55.713) scale(13.3135 9.65032)">
<stop stop-color="#FFB849"/>
<stop offset="1" stop-color="#FFB847" stop-opacity="0"/>
</radialGradient>
<radialGradient id="paint6_radial_212_274" cx="0" cy="0" r="1" gradientUnits="userSpaceOnUse" gradientTransform="translate(20.5 18) rotate(9.86582) scale(11.6726)">
<stop stop-color="#FFA64B"/>
<stop offset="0.9" stop-color="#FFAE46" stop-opacity="0"/>
</radialGradient>
<radialGradient id="paint7_radial_212_274" cx="0" cy="0" r="1" gradientUnits="userSpaceOnUse" gradientTransform="translate(17.5001 15.0003) rotate(43.971) scale(59.0529)">
<stop offset="0.185" stop-opacity="0"/>
<stop offset="1" stop-opacity="0.4"/>
</radialGradient>
<radialGradient id="paint8_radial_212_274" cx="0" cy="0" r="1" gradientUnits="userSpaceOnUse" gradientTransform="translate(15.999 27.556) rotate(-90) scale(8.55556 17.1111)">
<stop stop-color="#F70A8D"/>
<stop offset="1" stop-color="#89029C"/>
</radialGradient>
<radialGradient id="paint9_radial_212_274" cx="0" cy="0" r="1" gradientUnits="userSpaceOnUse" gradientTransform="translate(16.5 30.5001) rotate(-92.8624) scale(10.0125 17.406)">
<stop stop-color="#56B7B8"/>
<stop offset="0.392" stop-color="#50F099"/>
<stop offset="0.675" stop-color="#45CD7F"/>
<stop offset="0.832" stop-color="#3BA66E"/>
<stop offset="0.886" stop-color="#477063"/>
</radialGradient>
<linearGradient id="paint10_linear_212_274" x1="15.999" y1="19" x2="15.999" y2="20.43" gradientUnits="userSpaceOnUse">
<stop stop-color="#ECCDFF"/>
<stop offset="1" stop-color="white"/>
</linearGradient>
<radialGradient id="paint11_radial_212_274" cx="0" cy="0" r="1" gradientUnits="userSpaceOnUse" gradientTransform="translate(19 26.5) rotate(113.962) scale(4.92443 2.18283)">
<stop stop-color="#72FDB3"/>
<stop offset="0.603" stop-color="#72FDB3" stop-opacity="0"/>
</radialGradient>
</defs>
</svg>
