<svg width="32" height="32" viewBox="0 0 32 32" fill="none" xmlns="http://www.w3.org/2000/svg">
<path d="M15.998 29.998C25.332 29.998 29.997 23.73 29.997 15.998C29.997 8.268 25.332 2 15.997 2C6.664 2 2 8.268 2 15.999C2 23.73 6.664 29.998 15.999 29.998H15.998Z" fill="url(#paint0_radial_212_190)"/>
<path d="M15.998 29.998C25.332 29.998 29.997 23.73 29.997 15.998C29.997 8.268 25.332 2 15.997 2C6.664 2 2 8.268 2 15.999C2 23.73 6.664 29.998 15.999 29.998H15.998Z" fill="url(#paint1_radial_212_190)"/>
<path d="M15.998 29.998C25.332 29.998 29.997 23.73 29.997 15.998C29.997 8.268 25.332 2 15.997 2C6.664 2 2 8.268 2 15.999C2 23.73 6.664 29.998 15.999 29.998H15.998Z" fill="url(#paint2_radial_212_190)"/>
<path d="M15.998 29.998C25.332 29.998 29.997 23.73 29.997 15.998C29.997 8.268 25.332 2 15.997 2C6.664 2 2 8.268 2 15.999C2 23.73 6.664 29.998 15.999 29.998H15.998Z" fill="url(#paint3_radial_212_190)" fill-opacity="0.6"/>
<path d="M15.998 29.998C25.332 29.998 29.997 23.73 29.997 15.998C29.997 8.268 25.332 2 15.997 2C6.664 2 2 8.268 2 15.999C2 23.73 6.664 29.998 15.999 29.998H15.998Z" fill="url(#paint4_radial_212_190)"/>
<path d="M15.998 29.998C25.332 29.998 29.997 23.73 29.997 15.998C29.997 8.268 25.332 2 15.997 2C6.664 2 2 8.268 2 15.999C2 23.73 6.664 29.998 15.999 29.998H15.998Z" fill="url(#paint5_radial_212_190)"/>
<path d="M15.998 29.998C25.332 29.998 29.997 23.73 29.997 15.998C29.997 8.268 25.332 2 15.997 2C6.664 2 2 8.268 2 15.999C2 23.73 6.664 29.998 15.999 29.998H15.998Z" fill="url(#paint6_radial_212_190)"/>
<path d="M15.998 29.998C25.332 29.998 29.997 23.73 29.997 15.998C29.997 8.268 25.332 2 15.997 2C6.664 2 2 8.268 2 15.999C2 23.73 6.664 29.998 15.999 29.998H15.998Z" fill="url(#paint7_radial_212_190)"/>
<path d="M11.327 19C11.327 19 12.729 21 15.999 21C19.269 21 20.671 19 20.671 19" stroke="url(#paint8_radial_212_190)" stroke-width="2" stroke-linecap="round" stroke-linejoin="round"/>
<g filter="url(#filter0_f_212_190)">
<path d="M3.54803 14.596C3.76803 15.502 4.39603 17.224 6.40303 17.721C6.70958 17.7959 7.02006 17.8536 7.33303 17.894C11.639 18.298 14.485 14.659 14.623 10.7C14.635 10.371 14.888 10.094 15.216 10.09C15.391 10.087 15.572 10.088 15.759 10.09C16.086 10.097 16.337 10.373 16.349 10.7C16.489 14.659 19.332 18.298 23.639 17.894C23.9524 17.8533 24.2632 17.7953 24.57 17.72C27.228 17.063 28.877 15.315 29.72 13.44C29.593 12.6612 29.4064 11.8932 29.162 11.143C28.91 13.346 27.73 13.624 24.569 14.407C24.309 14.471 23.42 15.091 23.155 15.127C20.155 15.408 19.311 13.441 17.611 10.299V10.225C17.721 10.239 17.832 10.255 17.943 10.272L18.217 8.49596C18.5357 8.08479 18.9592 7.76699 19.443 7.57596C19.557 7.52696 19.825 7.41496 20.653 7.25996C21.509 7.09996 23.79 7.10296 25.183 7.10396H25.493C26.229 7.10396 26.897 7.31696 27.328 7.51296C26.976 7.02696 26.588 6.56896 26.165 6.14096C25.9422 6.11658 25.7182 6.10423 25.494 6.10396H25.179C24.485 6.10396 23.557 6.10196 22.694 6.12196C21.858 6.14096 20.619 6.19396 20.098 6.29196C19.238 6.45196 18.89 6.57996 18.689 6.66596C18.1497 6.87892 17.669 7.21766 17.287 7.65396C17.04 7.93596 16.691 8.12396 16.317 8.10696C15.717 8.08096 15.153 8.08396 14.647 8.10396C14.276 8.11896 13.929 7.93196 13.684 7.65196C13.3018 7.21683 12.8216 6.87886 12.283 6.66596C12.082 6.57996 11.735 6.45196 10.873 6.29096C10.353 6.19396 9.11403 6.14096 8.27803 6.12096C7.41503 6.10196 6.48703 6.10296 5.79303 6.10396H5.78003C5.44903 6.43596 5.13903 6.78596 4.85003 7.15396C5.05778 7.12121 5.26773 7.1045 5.47803 7.10396H5.78903C7.18203 7.10296 9.46303 7.10096 10.319 7.25996C11.147 7.41496 11.414 7.52696 11.529 7.57596C11.999 7.76096 12.408 8.06596 12.719 8.45196L13.062 10.266C13.143 10.251 13.243 10.235 13.361 10.218V10.299C13.541 14.51 10.334 17.048 7.33403 16.767C7.07025 16.7312 6.80855 16.6815 6.55003 16.618C4.25103 16.049 4.41803 14.361 3.76703 12.752C3.65203 13.343 3.60103 13.978 3.54803 14.596V14.596Z" fill="url(#paint9_linear_212_190)"/>
</g>
<path fill-rule="evenodd" clip-rule="evenodd" d="M12.796 5.66596C13.348 5.88596 13.822 6.22596 14.196 6.65196C14.442 6.93196 14.789 7.11896 15.161 7.10396C15.666 7.08396 16.231 7.08096 16.831 7.10696C17.204 7.12396 17.553 6.93596 17.799 6.65396C18.174 6.22596 18.649 5.88696 19.202 5.66596C19.403 5.57996 19.75 5.45196 20.612 5.29096C21.132 5.19396 22.371 5.14096 23.207 5.12096C24.07 5.10196 24.998 5.10296 25.692 5.10396H26.007C27.196 5.10396 28.369 5.47996 28.835 5.75996C29.882 6.29096 30.85 7.30696 30.92 9.05496C30.9232 9.08118 30.9249 9.10755 30.925 9.13396C31.008 11.822 29.338 15.667 25.082 16.721C24.7755 16.7959 24.465 16.8536 24.152 16.894C19.845 17.298 17.002 13.659 16.862 9.69996C16.85 9.37296 16.599 9.09696 16.272 9.08996C16.091 9.08722 15.91 9.08722 15.729 9.08996C15.401 9.09396 15.149 9.37096 15.137 9.69996C14.997 13.659 12.152 17.298 7.84702 16.894C7.53369 16.8533 7.22287 16.7953 6.91602 16.72C2.65902 15.668 0.990022 11.823 1.07202 9.13496C1.07302 9.10796 1.07502 9.08196 1.07802 9.05496C1.14802 7.30796 2.11602 6.29196 3.16302 5.76096C3.62802 5.48096 4.80202 5.10496 5.99102 5.10496H6.30602C7.00002 5.10496 7.92802 5.10296 8.79102 5.12296C9.62702 5.14196 10.866 5.19496 11.387 5.29296C12.247 5.45296 12.595 5.58096 12.796 5.66696V5.66596ZM2.48902 8.16496C2.73902 7.55596 3.20302 7.05896 3.82802 6.68296C4.48912 6.31165 5.23284 6.11223 5.99102 6.10296H6.30202C7.69502 6.10296 9.97602 6.10096 10.832 6.25996C11.66 6.41496 11.927 6.52696 12.042 6.57596C12.512 6.76096 12.921 7.06596 13.232 7.45196L13.575 9.26596C13.656 9.25096 13.757 9.23496 13.874 9.21796V9.29996C14.054 13.511 10.847 16.049 7.84702 15.768C7.5829 15.7322 7.32086 15.6825 7.06202 15.619C3.90202 14.837 2.57502 12.347 2.32302 10.144C2.28512 9.81541 2.27075 9.48457 2.28002 9.15396V9.14396H2.28202V9.13396C2.29362 8.80164 2.36369 8.47396 2.48902 8.16596V8.16496ZM18.124 9.22496V9.29896C17.944 13.51 21.151 16.048 24.151 15.767C24.4148 15.7313 24.6765 15.6816 24.935 15.618C28.095 14.836 29.423 12.346 29.675 10.143C29.7128 9.8144 29.7272 9.48356 29.718 9.15296V9.14296H29.716V9.13296C29.7041 8.80058 29.6337 8.4729 29.508 8.16496C29.258 7.55596 28.795 7.05896 28.17 6.68296C27.5089 6.31169 26.7652 6.11227 26.007 6.10296H25.696C24.303 6.10296 22.021 6.10096 21.166 6.25996C20.338 6.41496 20.07 6.52696 19.956 6.57596C19.468 6.76796 19.046 7.08896 18.73 7.49596L18.456 9.27196C18.3455 9.25502 18.2349 9.23936 18.124 9.22496V9.22496Z" fill="url(#paint10_radial_212_190)"/>
<path fill-rule="evenodd" clip-rule="evenodd" d="M12.796 5.66596C13.348 5.88596 13.822 6.22596 14.196 6.65196C14.442 6.93196 14.789 7.11896 15.161 7.10396C15.666 7.08396 16.231 7.08096 16.831 7.10696C17.204 7.12396 17.553 6.93596 17.799 6.65396C18.174 6.22596 18.649 5.88696 19.202 5.66596C19.403 5.57996 19.75 5.45196 20.612 5.29096C21.132 5.19396 22.371 5.14096 23.207 5.12096C24.07 5.10196 24.998 5.10296 25.692 5.10396H26.007C27.196 5.10396 28.369 5.47996 28.835 5.75996C29.882 6.29096 30.85 7.30696 30.92 9.05496C30.9232 9.08118 30.9249 9.10755 30.925 9.13396C31.008 11.822 29.338 15.667 25.082 16.721C24.7755 16.7959 24.465 16.8536 24.152 16.894C19.845 17.298 17.002 13.659 16.862 9.69996C16.85 9.37296 16.599 9.09696 16.272 9.08996C16.091 9.08722 15.91 9.08722 15.729 9.08996C15.401 9.09396 15.149 9.37096 15.137 9.69996C14.997 13.659 12.152 17.298 7.84702 16.894C7.53369 16.8533 7.22287 16.7953 6.91602 16.72C2.65902 15.668 0.990022 11.823 1.07202 9.13496C1.07302 9.10796 1.07502 9.08196 1.07802 9.05496C1.14802 7.30796 2.11602 6.29196 3.16302 5.76096C3.62802 5.48096 4.80202 5.10496 5.99102 5.10496H6.30602C7.00002 5.10496 7.92802 5.10296 8.79102 5.12296C9.62702 5.14196 10.866 5.19496 11.387 5.29296C12.247 5.45296 12.595 5.58096 12.796 5.66696V5.66596ZM2.48902 8.16496C2.73902 7.55596 3.20302 7.05896 3.82802 6.68296C4.48912 6.31165 5.23284 6.11223 5.99102 6.10296H6.30202C7.69502 6.10296 9.97602 6.10096 10.832 6.25996C11.66 6.41496 11.927 6.52696 12.042 6.57596C12.512 6.76096 12.921 7.06596 13.232 7.45196L13.575 9.26596C13.656 9.25096 13.757 9.23496 13.874 9.21796V9.29996C14.054 13.511 10.847 16.049 7.84702 15.768C7.5829 15.7322 7.32086 15.6825 7.06202 15.619C3.90202 14.837 2.57502 12.347 2.32302 10.144C2.28512 9.81541 2.27075 9.48457 2.28002 9.15396V9.14396H2.28202V9.13396C2.29362 8.80164 2.36369 8.47396 2.48902 8.16596V8.16496ZM18.124 9.22496V9.29896C17.944 13.51 21.151 16.048 24.151 15.767C24.4148 15.7313 24.6765 15.6816 24.935 15.618C28.095 14.836 29.423 12.346 29.675 10.143C29.7128 9.8144 29.7272 9.48356 29.718 9.15296V9.14296H29.716V9.13296C29.7041 8.80058 29.6337 8.4729 29.508 8.16496C29.258 7.55596 28.795 7.05896 28.17 6.68296C27.5089 6.31169 26.7652 6.11227 26.007 6.10296H25.696C24.303 6.10296 22.021 6.10096 21.166 6.25996C20.338 6.41496 20.07 6.52696 19.956 6.57596C19.468 6.76796 19.046 7.08896 18.73 7.49596L18.456 9.27196C18.3455 9.25502 18.2349 9.23936 18.124 9.22496V9.22496Z" fill="url(#paint11_radial_212_190)"/>
<path fill-rule="evenodd" clip-rule="evenodd" d="M12.796 5.66596C13.348 5.88596 13.822 6.22596 14.196 6.65196C14.442 6.93196 14.789 7.11896 15.161 7.10396C15.666 7.08396 16.231 7.08096 16.831 7.10696C17.204 7.12396 17.553 6.93596 17.799 6.65396C18.174 6.22596 18.649 5.88696 19.202 5.66596C19.403 5.57996 19.75 5.45196 20.612 5.29096C21.132 5.19396 22.371 5.14096 23.207 5.12096C24.07 5.10196 24.998 5.10296 25.692 5.10396H26.007C27.196 5.10396 28.369 5.47996 28.835 5.75996C29.882 6.29096 30.85 7.30696 30.92 9.05496C30.9232 9.08118 30.9249 9.10755 30.925 9.13396C31.008 11.822 29.338 15.667 25.082 16.721C24.7755 16.7959 24.465 16.8536 24.152 16.894C19.845 17.298 17.002 13.659 16.862 9.69996C16.85 9.37296 16.599 9.09696 16.272 9.08996C16.091 9.08722 15.91 9.08722 15.729 9.08996C15.401 9.09396 15.149 9.37096 15.137 9.69996C14.997 13.659 12.152 17.298 7.84702 16.894C7.53369 16.8533 7.22287 16.7953 6.91602 16.72C2.65902 15.668 0.990022 11.823 1.07202 9.13496C1.07302 9.10796 1.07502 9.08196 1.07802 9.05496C1.14802 7.30796 2.11602 6.29196 3.16302 5.76096C3.62802 5.48096 4.80202 5.10496 5.99102 5.10496H6.30602C7.00002 5.10496 7.92802 5.10296 8.79102 5.12296C9.62702 5.14196 10.866 5.19496 11.387 5.29296C12.247 5.45296 12.595 5.58096 12.796 5.66696V5.66596ZM2.48902 8.16496C2.73902 7.55596 3.20302 7.05896 3.82802 6.68296C4.48912 6.31165 5.23284 6.11223 5.99102 6.10296H6.30202C7.69502 6.10296 9.97602 6.10096 10.832 6.25996C11.66 6.41496 11.927 6.52696 12.042 6.57596C12.512 6.76096 12.921 7.06596 13.232 7.45196L13.575 9.26596C13.656 9.25096 13.757 9.23496 13.874 9.21796V9.29996C14.054 13.511 10.847 16.049 7.84702 15.768C7.5829 15.7322 7.32086 15.6825 7.06202 15.619C3.90202 14.837 2.57502 12.347 2.32302 10.144C2.28512 9.81541 2.27075 9.48457 2.28002 9.15396V9.14396H2.28202V9.13396C2.29362 8.80164 2.36369 8.47396 2.48902 8.16596V8.16496ZM18.124 9.22496V9.29896C17.944 13.51 21.151 16.048 24.151 15.767C24.4148 15.7313 24.6765 15.6816 24.935 15.618C28.095 14.836 29.423 12.346 29.675 10.143C29.7128 9.8144 29.7272 9.48356 29.718 9.15296V9.14296H29.716V9.13296C29.7041 8.80058 29.6337 8.4729 29.508 8.16496C29.258 7.55596 28.795 7.05896 28.17 6.68296C27.5089 6.31169 26.7652 6.11227 26.007 6.10296H25.696C24.303 6.10296 22.021 6.10096 21.166 6.25996C20.338 6.41496 20.07 6.52696 19.956 6.57596C19.468 6.76796 19.046 7.08896 18.73 7.49596L18.456 9.27196C18.3455 9.25502 18.2349 9.23936 18.124 9.22496V9.22496Z" fill="url(#paint12_radial_212_190)"/>
<path d="M3.82802 6.68303C4.48912 6.31172 5.23284 6.11229 5.99102 6.10303H6.30202C7.69502 6.10303 9.97602 6.10103 10.832 6.26003C11.66 6.41503 11.927 6.52703 12.042 6.57603C12.5824 6.7889 13.0461 7.15954 13.3729 7.63969C13.6997 8.11984 13.8743 8.68724 13.874 9.26803V9.29903C14.054 13.51 10.847 16.048 7.84702 15.767C7.58324 15.7313 7.32153 15.6815 7.06302 15.618C3.41002 14.714 2.20702 11.53 2.28002 9.14303H2.28202C2.32202 8.07503 2.89602 7.24403 3.82802 6.68303V6.68303Z" fill="url(#paint13_radial_212_190)"/>
<path d="M3.82802 6.68303C4.48912 6.31172 5.23284 6.11229 5.99102 6.10303H6.30202C7.69502 6.10303 9.97602 6.10103 10.832 6.26003C11.66 6.41503 11.927 6.52703 12.042 6.57603C12.5824 6.7889 13.0461 7.15954 13.3729 7.63969C13.6997 8.11984 13.8743 8.68724 13.874 9.26803V9.29903C14.054 13.51 10.847 16.048 7.84702 15.767C7.58324 15.7313 7.32153 15.6815 7.06302 15.618C3.41002 14.714 2.20702 11.53 2.28002 9.14303H2.28202C2.32202 8.07503 2.89602 7.24403 3.82802 6.68303V6.68303Z" fill="url(#paint14_radial_212_190)"/>
<path d="M3.82802 6.68303C4.48912 6.31172 5.23284 6.11229 5.99102 6.10303H6.30202C7.69502 6.10303 9.97602 6.10103 10.832 6.26003C11.66 6.41503 11.927 6.52703 12.042 6.57603C12.5824 6.7889 13.0461 7.15954 13.3729 7.63969C13.6997 8.11984 13.8743 8.68724 13.874 9.26803V9.29903C14.054 13.51 10.847 16.048 7.84702 15.767C7.58324 15.7313 7.32153 15.6815 7.06302 15.618C3.41002 14.714 2.20702 11.53 2.28002 9.14303H2.28202C2.32202 8.07503 2.89602 7.24403 3.82802 6.68303V6.68303Z" fill="url(#paint15_radial_212_190)"/>
<path d="M3.82802 6.68303C4.48912 6.31172 5.23284 6.11229 5.99102 6.10303H6.30202C7.69502 6.10303 9.97602 6.10103 10.832 6.26003C11.66 6.41503 11.927 6.52703 12.042 6.57603C12.5824 6.7889 13.0461 7.15954 13.3729 7.63969C13.6997 8.11984 13.8743 8.68724 13.874 9.26803V9.29903C14.054 13.51 10.847 16.048 7.84702 15.767C7.58324 15.7313 7.32153 15.6815 7.06302 15.618C3.41002 14.714 2.20702 11.53 2.28002 9.14303H2.28202C2.32202 8.07503 2.89602 7.24403 3.82802 6.68303V6.68303Z" fill="url(#paint16_radial_212_190)"/>
<path d="M11.9583 10.8336C12.7006 10.4734 12.9352 9.42453 12.4821 8.49088C12.0291 7.55724 11.0601 7.09236 10.3178 7.45255C9.57542 7.81274 9.34087 8.8616 9.79388 9.79525C10.2469 10.7289 11.2159 11.1938 11.9583 10.8336Z" fill="url(#paint17_linear_212_190)"/>
<path d="M28.17 6.68303C27.5089 6.31176 26.7652 6.11234 26.007 6.10303H25.696C24.303 6.10303 22.021 6.10103 21.166 6.26003C20.338 6.41503 20.07 6.52703 19.956 6.57603C19.4156 6.7889 18.9519 7.15954 18.6251 7.63969C18.2984 8.11984 18.1237 8.68724 18.124 9.26803V9.29903C17.944 13.51 21.151 16.048 24.151 15.767C24.4148 15.7314 24.6765 15.6816 24.935 15.618C28.587 14.714 29.791 11.53 29.718 9.14303H29.716C29.676 8.07503 29.102 7.24403 28.17 6.68303V6.68303Z" fill="url(#paint18_radial_212_190)"/>
<path d="M28.17 6.68303C27.5089 6.31176 26.7652 6.11234 26.007 6.10303H25.696C24.303 6.10303 22.021 6.10103 21.166 6.26003C20.338 6.41503 20.07 6.52703 19.956 6.57603C19.4156 6.7889 18.9519 7.15954 18.6251 7.63969C18.2984 8.11984 18.1237 8.68724 18.124 9.26803V9.29903C17.944 13.51 21.151 16.048 24.151 15.767C24.4148 15.7314 24.6765 15.6816 24.935 15.618C28.587 14.714 29.791 11.53 29.718 9.14303H29.716C29.676 8.07503 29.102 7.24403 28.17 6.68303V6.68303Z" fill="url(#paint19_radial_212_190)"/>
<path d="M28.17 6.68303C27.5089 6.31176 26.7652 6.11234 26.007 6.10303H25.696C24.303 6.10303 22.021 6.10103 21.166 6.26003C20.338 6.41503 20.07 6.52703 19.956 6.57603C19.4156 6.7889 18.9519 7.15954 18.6251 7.63969C18.2984 8.11984 18.1237 8.68724 18.124 9.26803V9.29903C17.944 13.51 21.151 16.048 24.151 15.767C24.4148 15.7314 24.6765 15.6816 24.935 15.618C28.587 14.714 29.791 11.53 29.718 9.14303H29.716C29.676 8.07503 29.102 7.24403 28.17 6.68303V6.68303Z" fill="url(#paint20_radial_212_190)"/>
<path d="M28.17 6.68303C27.5089 6.31176 26.7652 6.11234 26.007 6.10303H25.696C24.303 6.10303 22.021 6.10103 21.166 6.26003C20.338 6.41503 20.07 6.52703 19.956 6.57603C19.4156 6.7889 18.9519 7.15954 18.6251 7.63969C18.2984 8.11984 18.1237 8.68724 18.124 9.26803V9.29903C17.944 13.51 21.151 16.048 24.151 15.767C24.4148 15.7314 24.6765 15.6816 24.935 15.618C28.587 14.714 29.791 11.53 29.718 9.14303H29.716C29.676 8.07503 29.102 7.24403 28.17 6.68303V6.68303Z" fill="url(#paint21_radial_212_190)"/>
<path d="M27.9923 10.8336C28.7346 10.4734 28.9692 9.42453 28.5161 8.49088C28.0631 7.55724 27.0941 7.09236 26.3518 7.45255C25.6094 7.81274 25.3749 8.8616 25.8279 9.79525C26.2809 10.7289 27.2499 11.1938 27.9923 10.8336Z" fill="url(#paint22_linear_212_190)"/>
<defs>
<filter id="filter0_f_212_190" x="2.34803" y="4.90352" width="28.572" height="14.2213" filterUnits="userSpaceOnUse" color-interpolation-filters="sRGB">
<feFlood flood-opacity="0" result="BackgroundImageFix"/>
<feBlend mode="normal" in="SourceGraphic" in2="BackgroundImageFix" result="shape"/>
<feGaussianBlur stdDeviation="0.6" result="effect1_foregroundBlur_212_190"/>
</filter>
<radialGradient id="paint0_radial_212_190" cx="0" cy="0" r="1" gradientUnits="userSpaceOnUse" gradientTransform="translate(25.4985 9.00032) rotate(132.839) scale(37.5033 37.5033)">
<stop stop-color="#FFF478"/>
<stop offset="0.475" stop-color="#FFB02E"/>
<stop offset="1" stop-color="#F70A8D"/>
</radialGradient>
<radialGradient id="paint1_radial_212_190" cx="0" cy="0" r="1" gradientUnits="userSpaceOnUse" gradientTransform="translate(25.4988 9.00064) rotate(131.878) scale(38.9487)">
<stop stop-color="#FFF478"/>
<stop offset="0.475" stop-color="#FFB02E"/>
<stop offset="1" stop-color="#F70A8D"/>
</radialGradient>
<radialGradient id="paint2_radial_212_190" cx="0" cy="0" r="1" gradientUnits="userSpaceOnUse" gradientTransform="translate(15.9993 12.4997) rotate(101.31) scale(17.8466 22.8581)">
<stop offset="0.788" stop-color="#F59639" stop-opacity="0"/>
<stop offset="0.973" stop-color="#FF7DCE"/>
</radialGradient>
<radialGradient id="paint3_radial_212_190" cx="0" cy="0" r="1" gradientUnits="userSpaceOnUse" gradientTransform="translate(17.999 14) rotate(135) scale(41.0122)">
<stop offset="0.315" stop-opacity="0"/>
<stop offset="1"/>
</radialGradient>
<radialGradient id="paint4_radial_212_190" cx="0" cy="0" r="1" gradientUnits="userSpaceOnUse" gradientTransform="translate(15.999 17) rotate(77.692) scale(28.1469)">
<stop offset="0.508" stop-color="#7D6133" stop-opacity="0"/>
<stop offset="1" stop-color="#715B32"/>
</radialGradient>
<radialGradient id="paint5_radial_212_190" cx="0" cy="0" r="1" gradientUnits="userSpaceOnUse" gradientTransform="translate(16.5 16.5) rotate(55.713) scale(13.3135 9.65032)">
<stop stop-color="#FFB849"/>
<stop offset="1" stop-color="#FFB847" stop-opacity="0"/>
</radialGradient>
<radialGradient id="paint6_radial_212_190" cx="0" cy="0" r="1" gradientUnits="userSpaceOnUse" gradientTransform="translate(20.499 18) rotate(9.86582) scale(11.6726)">
<stop stop-color="#FFA64B"/>
<stop offset="0.9" stop-color="#FFAE46" stop-opacity="0"/>
</radialGradient>
<radialGradient id="paint7_radial_212_190" cx="0" cy="0" r="1" gradientUnits="userSpaceOnUse" gradientTransform="translate(17.4994 15) rotate(43.971) scale(59.0529 59.0529)">
<stop offset="0.185" stop-opacity="0"/>
<stop offset="1" stop-opacity="0.4"/>
</radialGradient>
<radialGradient id="paint8_radial_212_190" cx="0" cy="0" r="1" gradientUnits="userSpaceOnUse" gradientTransform="translate(15.999 17.815) rotate(90) scale(10.9375 16.8684)">
<stop offset="0.146" stop-color="#2E1529"/>
<stop offset="0.276" stop-color="#503A4A"/>
<stop offset="0.343" stop-color="#4B2744"/>
</radialGradient>
<linearGradient id="paint9_linear_212_190" x1="22.686" y1="12.014" x2="8.62403" y2="17.377" gradientUnits="userSpaceOnUse">
<stop stop-color="#E78F00"/>
<stop offset="1" stop-color="#D07000"/>
</linearGradient>
<radialGradient id="paint10_radial_212_190" cx="0" cy="0" r="1" gradientUnits="userSpaceOnUse" gradientTransform="translate(21.123 5.75196) rotate(78.861) scale(12.2941 25.4762)">
<stop stop-color="#5F5B9B"/>
<stop offset="1" stop-color="#5C3085"/>
</radialGradient>
<radialGradient id="paint11_radial_212_190" cx="0" cy="0" r="1" gradientUnits="userSpaceOnUse" gradientTransform="translate(23.89 11.013) rotate(78.0636) scale(5.51431 6.19478)">
<stop offset="0.776" stop-color="#77579C"/>
<stop offset="0.938" stop-color="#77579C" stop-opacity="0"/>
</radialGradient>
<radialGradient id="paint12_radial_212_190" cx="0" cy="0" r="1" gradientUnits="userSpaceOnUse" gradientTransform="translate(21.8735 10.0018) rotate(-122.735) scale(4.68093 3.43606)">
<stop offset="0.769" stop-color="#4E3D92"/>
<stop offset="1" stop-color="#534687" stop-opacity="0"/>
</radialGradient>
<radialGradient id="paint13_radial_212_190" cx="0" cy="0" r="1" gradientUnits="userSpaceOnUse" gradientTransform="translate(10.687 9.06523) rotate(121.845) scale(5.92276 6.72838)">
<stop stop-color="#4C3D70"/>
<stop offset="1" stop-color="#361C5D"/>
</radialGradient>
<radialGradient id="paint14_radial_212_190" cx="0" cy="0" r="1" gradientUnits="userSpaceOnUse" gradientTransform="translate(9.46802 9.22103) rotate(87.1376) scale(7.50937 11.1509)">
<stop offset="0.647" stop-color="#5B2B84" stop-opacity="0"/>
<stop offset="1" stop-color="#5B2B84"/>
</radialGradient>
<radialGradient id="paint15_radial_212_190" cx="0" cy="0" r="1" gradientUnits="userSpaceOnUse" gradientTransform="translate(7.77998 16.7847) rotate(-99.513) scale(11.5336 11.4216)">
<stop offset="0.859" stop-color="#2E1D57" stop-opacity="0"/>
<stop offset="1" stop-color="#20143D"/>
</radialGradient>
<radialGradient id="paint16_radial_212_190" cx="0" cy="0" r="1" gradientUnits="userSpaceOnUse" gradientTransform="translate(8.75002 8.47103) rotate(102.225) scale(7.67402 7.20221)">
<stop offset="0.872" stop-color="#2E1D57" stop-opacity="0"/>
<stop offset="1" stop-color="#20143D" stop-opacity="0.6"/>
</radialGradient>
<linearGradient id="paint17_linear_212_190" x1="11.138" y1="7.64479" x2="11.2641" y2="11.0981" gradientUnits="userSpaceOnUse">
<stop stop-color="white"/>
<stop offset="0.974" stop-color="white" stop-opacity="0"/>
</linearGradient>
<radialGradient id="paint18_radial_212_190" cx="0" cy="0" r="1" gradientUnits="userSpaceOnUse" gradientTransform="translate(24.6559 8.65838) rotate(121.289) scale(6.61888 9.94211)">
<stop stop-color="#4C3D70"/>
<stop offset="1" stop-color="#361C5D"/>
</radialGradient>
<radialGradient id="paint19_radial_212_190" cx="0" cy="0" r="1" gradientUnits="userSpaceOnUse" gradientTransform="translate(22.53 9.22103) rotate(92.8624) scale(7.50937 11.1509)">
<stop offset="0.647" stop-color="#5B2B84" stop-opacity="0"/>
<stop offset="1" stop-color="#5B2B84"/>
</radialGradient>
<radialGradient id="paint20_radial_212_190" cx="0" cy="0" r="1" gradientUnits="userSpaceOnUse" gradientTransform="translate(23.919 15.44) rotate(-77.6023) scale(10.2708 10.171)">
<stop offset="0.859" stop-color="#2E1D57" stop-opacity="0"/>
<stop offset="1" stop-color="#20143D"/>
</radialGradient>
<radialGradient id="paint21_radial_212_190" cx="0" cy="0" r="1" gradientUnits="userSpaceOnUse" gradientTransform="translate(23.249 8.47103) rotate(77.7749) scale(7.67402 7.20221)">
<stop offset="0.872" stop-color="#2E1D57" stop-opacity="0"/>
<stop offset="1" stop-color="#20143D" stop-opacity="0.6"/>
</radialGradient>
<linearGradient id="paint22_linear_212_190" x1="27.172" y1="7.64479" x2="27.299" y2="11.0977" gradientUnits="userSpaceOnUse">
<stop stop-color="white"/>
<stop offset="0.974" stop-color="white" stop-opacity="0"/>
</linearGradient>
</defs>
</svg>
