<svg width="32" height="32" viewBox="0 0 32 32" fill="none" xmlns="http://www.w3.org/2000/svg">
<path d="M15.999 29.998C25.333 29.998 29.998 23.73 29.998 15.998C29.998 8.268 25.333 2 15.998 2C6.665 2 2 8.268 2 15.999C2 23.73 6.664 29.998 15.999 29.998Z" fill="url(#paint0_radial_212_293)"/>
<path d="M15.999 29.998C25.333 29.998 29.998 23.73 29.998 15.998C29.998 8.268 25.333 2 15.998 2C6.665 2 2 8.268 2 15.999C2 23.73 6.664 29.998 15.999 29.998Z" fill="url(#paint1_radial_212_293)"/>
<path d="M15.999 29.998C25.333 29.998 29.998 23.73 29.998 15.998C29.998 8.268 25.333 2 15.998 2C6.665 2 2 8.268 2 15.999C2 23.73 6.664 29.998 15.999 29.998Z" fill="url(#paint2_radial_212_293)"/>
<path d="M15.999 29.998C25.333 29.998 29.998 23.73 29.998 15.998C29.998 8.268 25.333 2 15.998 2C6.665 2 2 8.268 2 15.999C2 23.73 6.664 29.998 15.999 29.998Z" fill="url(#paint3_radial_212_293)" fill-opacity="0.6"/>
<path d="M15.999 29.998C25.333 29.998 29.998 23.73 29.998 15.998C29.998 8.268 25.333 2 15.998 2C6.665 2 2 8.268 2 15.999C2 23.73 6.664 29.998 15.999 29.998Z" fill="url(#paint4_radial_212_293)"/>
<path d="M15.999 29.998C25.333 29.998 29.998 23.73 29.998 15.998C29.998 8.268 25.333 2 15.998 2C6.665 2 2 8.268 2 15.999C2 23.73 6.664 29.998 15.999 29.998Z" fill="url(#paint5_radial_212_293)"/>
<path d="M15.999 29.998C25.333 29.998 29.998 23.73 29.998 15.998C29.998 8.268 25.333 2 15.998 2C6.665 2 2 8.268 2 15.999C2 23.73 6.664 29.998 15.999 29.998Z" fill="url(#paint6_radial_212_293)"/>
<path d="M15.999 29.998C25.333 29.998 29.998 23.73 29.998 15.998C29.998 8.268 25.333 2 15.998 2C6.665 2 2 8.268 2 15.999C2 23.73 6.664 29.998 15.999 29.998Z" fill="url(#paint7_radial_212_293)"/>
<path d="M14.961 16.6329C14.9696 17.1936 14.8666 17.7503 14.6581 18.2708C14.4495 18.7913 14.1395 19.265 13.746 19.6645C13.3526 20.0641 12.8837 20.3813 12.3665 20.5979C11.8493 20.8144 11.2942 20.926 10.7335 20.926C10.1728 20.926 9.61769 20.8144 9.1005 20.5979C8.58331 20.3813 8.11436 20.0641 7.72094 19.6645C7.32753 19.265 7.01751 18.7913 6.80893 18.2708C6.60035 17.7503 6.49737 17.1936 6.50599 16.6329C6.52306 15.523 6.97597 14.4643 7.76692 13.6854C8.55788 12.9065 9.62342 12.47 10.7335 12.47C11.8436 12.47 12.9091 12.9065 13.7001 13.6854C14.491 14.4643 14.9439 15.523 14.961 16.6329ZM17 16.6329C16.9914 17.1936 17.0943 17.7503 17.3029 18.2708C17.5115 18.7913 17.8215 19.265 18.2149 19.6645C18.6084 20.0641 19.0773 20.3813 19.5945 20.5979C20.1117 20.8144 20.6668 20.926 21.2275 20.926C21.7882 20.926 22.3433 20.8144 22.8605 20.5979C23.3777 20.3813 23.8466 20.0641 24.24 19.6645C24.6335 19.265 24.9435 18.7913 25.1521 18.2708C25.3606 17.7503 25.4636 17.1936 25.455 16.6329C25.4379 15.523 24.985 14.4643 24.1941 13.6854C23.4031 12.9065 22.3376 12.47 21.2275 12.47C20.1174 12.47 19.0519 12.9065 18.2609 13.6854C17.47 14.4643 17.0171 15.523 17 16.6329Z" fill="white"/>
<path d="M17.145 16.3211C17.145 16.8071 17.2407 17.2884 17.4267 17.7374C17.6127 18.1865 17.8853 18.5944 18.229 18.9381C18.5727 19.2818 18.9807 19.5544 19.4297 19.7404C19.8787 19.9264 20.36 20.0221 20.846 20.0221C21.332 20.0221 21.8133 19.9264 22.2623 19.7404C22.7113 19.5544 23.1193 19.2818 23.463 18.9381C23.8067 18.5944 24.0793 18.1865 24.2653 17.7374C24.4513 17.2884 24.547 16.8071 24.547 16.3211C24.547 15.3396 24.1571 14.3982 23.463 13.7041C22.7689 13.01 21.8276 12.6201 20.846 12.6201C19.8644 12.6201 18.9231 13.01 18.229 13.7041C17.5349 14.3982 17.145 15.3396 17.145 16.3211V16.3211ZM11.116 20.0231C11.6021 20.0231 12.0834 19.9274 12.5325 19.7414C12.9816 19.5553 13.3896 19.2827 13.7333 18.939C14.0771 18.5953 14.3497 18.1872 14.5357 17.7381C14.7217 17.289 14.8175 16.8077 14.8175 16.3216C14.8175 15.8355 14.7217 15.3542 14.5357 14.9051C14.3497 14.456 14.0771 14.048 13.7333 13.7043C13.3896 13.3605 12.9816 13.0879 12.5325 12.9019C12.0834 12.7159 11.6021 12.6201 11.116 12.6201C10.1343 12.6201 9.1928 13.0101 8.49863 13.7043C7.80447 14.3984 7.41449 15.3399 7.41449 16.3216C7.41449 17.3033 7.80447 18.2448 8.49863 18.939C9.1928 19.6331 10.1343 20.0231 11.116 20.0231V20.0231Z" fill="#3E272F"/>
<g filter="url(#filter0_i_212_293)">
<path d="M14.211 19.0371C13.8037 19.6381 13.2552 20.1302 12.6137 20.4701C11.9721 20.8101 11.257 20.9876 10.531 20.9871C10.079 20.9871 9.64199 20.9201 9.22999 20.7951C9.20822 20.7884 9.1852 20.7869 9.16274 20.7907C9.14029 20.7944 9.11901 20.8034 9.10058 20.8167C9.08216 20.8301 9.0671 20.8476 9.05659 20.8678C9.04607 20.888 9.04039 20.9103 9.03999 20.9331C9.03999 21.226 8.92363 21.507 8.71649 21.7141C8.50936 21.9212 8.22843 22.0376 7.93549 22.0376C7.64256 22.0376 7.36163 21.9212 7.15449 21.7141C6.94736 21.507 6.83099 21.226 6.83099 20.9331V20.0371C6.83099 19.7719 6.93635 19.5175 7.12389 19.33C7.31142 19.1425 7.56578 19.0371 7.83099 19.0371H14.211V19.0371Z" fill="#427DFF"/>
<path d="M14.211 19.0371C13.8037 19.6381 13.2552 20.1302 12.6137 20.4701C11.9721 20.8101 11.257 20.9876 10.531 20.9871C10.079 20.9871 9.64199 20.9201 9.22999 20.7951C9.20822 20.7884 9.1852 20.7869 9.16274 20.7907C9.14029 20.7944 9.11901 20.8034 9.10058 20.8167C9.08216 20.8301 9.0671 20.8476 9.05659 20.8678C9.04607 20.888 9.04039 20.9103 9.03999 20.9331C9.03999 21.226 8.92363 21.507 8.71649 21.7141C8.50936 21.9212 8.22843 22.0376 7.93549 22.0376C7.64256 22.0376 7.36163 21.9212 7.15449 21.7141C6.94736 21.507 6.83099 21.226 6.83099 20.9331V20.0371C6.83099 19.7719 6.93635 19.5175 7.12389 19.33C7.31142 19.1425 7.56578 19.0371 7.83099 19.0371H14.211V19.0371Z" fill="url(#paint8_radial_212_293)"/>
</g>
<g filter="url(#filter1_i_212_293)">
<path d="M17.75 19.0371C18.1573 19.6381 18.7058 20.1302 19.3473 20.4701C19.9889 20.8101 20.704 20.9876 21.43 20.9871C21.882 20.9871 22.32 20.9201 22.732 20.7951C22.825 20.7661 22.922 20.8351 22.922 20.9331C22.922 21.2259 23.0383 21.5067 23.2454 21.7138C23.4524 21.9208 23.7332 22.0371 24.026 22.0371C24.3188 22.0371 24.5996 21.9208 24.8066 21.7138C25.0137 21.5067 25.13 21.2259 25.13 20.9331V20.0371C25.13 19.7719 25.0246 19.5175 24.8371 19.33C24.6496 19.1425 24.3952 19.0371 24.13 19.0371H17.75V19.0371Z" fill="#4376FF"/>
<path d="M17.75 19.0371C18.1573 19.6381 18.7058 20.1302 19.3473 20.4701C19.9889 20.8101 20.704 20.9876 21.43 20.9871C21.882 20.9871 22.32 20.9201 22.732 20.7951C22.825 20.7661 22.922 20.8351 22.922 20.9331C22.922 21.2259 23.0383 21.5067 23.2454 21.7138C23.4524 21.9208 23.7332 22.0371 24.026 22.0371C24.3188 22.0371 24.5996 21.9208 24.8066 21.7138C25.0137 21.5067 25.13 21.2259 25.13 20.9331V20.0371C25.13 19.7719 25.0246 19.5175 24.8371 19.33C24.6496 19.1425 24.3952 19.0371 24.13 19.0371H17.75V19.0371Z" fill="url(#paint9_radial_212_293)"/>
<path d="M17.75 19.0371C18.1573 19.6381 18.7058 20.1302 19.3473 20.4701C19.9889 20.8101 20.704 20.9876 21.43 20.9871C21.882 20.9871 22.32 20.9201 22.732 20.7951C22.825 20.7661 22.922 20.8351 22.922 20.9331C22.922 21.2259 23.0383 21.5067 23.2454 21.7138C23.4524 21.9208 23.7332 22.0371 24.026 22.0371C24.3188 22.0371 24.5996 21.9208 24.8066 21.7138C25.0137 21.5067 25.13 21.2259 25.13 20.9331V20.0371C25.13 19.7719 25.0246 19.5175 24.8371 19.33C24.6496 19.1425 24.3952 19.0371 24.13 19.0371H17.75V19.0371Z" fill="url(#paint10_radial_212_293)"/>
</g>
<g filter="url(#filter2_f_212_293)">
<path d="M6.59802 11.9181C7.46702 11.8551 9.83802 11.0081 10.378 8.39209" stroke="url(#paint11_linear_212_293)" stroke-linecap="round"/>
</g>
<g filter="url(#filter3_f_212_293)">
<path d="M24.927 11.9181C24.059 11.8551 21.687 11.0081 21.147 8.39209" stroke="url(#paint12_linear_212_293)" stroke-linecap="round"/>
</g>
<g filter="url(#filter4_i_212_293)">
<path d="M6.59802 11.2169C7.46702 11.1529 9.83802 10.3069 10.378 7.68994" stroke="#4F384A" stroke-width="1.3" stroke-linecap="round"/>
</g>
<g filter="url(#filter5_i_212_293)">
<path d="M25.363 11.2169C24.495 11.1529 22.123 10.3069 21.583 7.68994" stroke="#462E2E" stroke-width="1.3" stroke-linecap="round"/>
</g>
<path d="M23.4213 16.3045C23.9388 15.9102 23.9557 15.0621 23.459 14.4101C22.9623 13.7582 22.1402 13.5493 21.6227 13.9436C21.1051 14.3379 21.0883 15.186 21.5849 15.8379C22.0816 16.4899 22.9038 16.6988 23.4213 16.3045Z" fill="url(#paint13_radial_212_293)"/>
<path d="M13.3586 16.305C13.8761 15.9107 13.893 15.0626 13.3963 14.4106C12.8996 13.7587 12.0774 13.5498 11.5599 13.9441C11.0424 14.3383 11.0255 15.1865 11.5222 15.8384C12.0189 16.4904 12.841 16.6992 13.3586 16.305Z" fill="url(#paint14_radial_212_293)"/>
<g filter="url(#filter6_i_212_293)">
<path d="M13.133 22.5439C13.412 23.0759 14.382 24.0989 15.939 24.0989C17.496 24.0989 18.489 23.0759 18.829 22.5439" stroke="url(#paint15_radial_212_293)" stroke-width="1.9" stroke-linecap="round"/>
</g>
<defs>
<filter id="filter0_i_212_293" x="6.83099" y="18.6371" width="7.78" height="3.40049" filterUnits="userSpaceOnUse" color-interpolation-filters="sRGB">
<feFlood flood-opacity="0" result="BackgroundImageFix"/>
<feBlend mode="normal" in="SourceGraphic" in2="BackgroundImageFix" result="shape"/>
<feColorMatrix in="SourceAlpha" type="matrix" values="0 0 0 0 0 0 0 0 0 0 0 0 0 0 0 0 0 0 127 0" result="hardAlpha"/>
<feOffset dx="0.4" dy="-0.4"/>
<feGaussianBlur stdDeviation="0.375"/>
<feComposite in2="hardAlpha" operator="arithmetic" k2="-1" k3="1"/>
<feColorMatrix type="matrix" values="0 0 0 0 0.317647 0 0 0 0 0.380392 0 0 0 0 0.843137 0 0 0 1 0"/>
<feBlend mode="normal" in2="shape" result="effect1_innerShadow_212_293"/>
</filter>
<filter id="filter1_i_212_293" x="17.75" y="18.7871" width="7.78" height="3.25" filterUnits="userSpaceOnUse" color-interpolation-filters="sRGB">
<feFlood flood-opacity="0" result="BackgroundImageFix"/>
<feBlend mode="normal" in="SourceGraphic" in2="BackgroundImageFix" result="shape"/>
<feColorMatrix in="SourceAlpha" type="matrix" values="0 0 0 0 0 0 0 0 0 0 0 0 0 0 0 0 0 0 127 0" result="hardAlpha"/>
<feOffset dx="0.4" dy="-0.25"/>
<feGaussianBlur stdDeviation="0.375"/>
<feComposite in2="hardAlpha" operator="arithmetic" k2="-1" k3="1"/>
<feColorMatrix type="matrix" values="0 0 0 0 0.207843 0 0 0 0 0.352941 0 0 0 0 0.901961 0 0 0 1 0"/>
<feBlend mode="normal" in2="shape" result="effect1_innerShadow_212_293"/>
</filter>
<filter id="filter2_f_212_293" x="5.09802" y="6.89209" width="6.78009" height="6.52612" filterUnits="userSpaceOnUse" color-interpolation-filters="sRGB">
<feFlood flood-opacity="0" result="BackgroundImageFix"/>
<feBlend mode="normal" in="SourceGraphic" in2="BackgroundImageFix" result="shape"/>
<feGaussianBlur stdDeviation="0.5" result="effect1_foregroundBlur_212_293"/>
</filter>
<filter id="filter3_f_212_293" x="19.6469" y="6.89209" width="6.78015" height="6.52612" filterUnits="userSpaceOnUse" color-interpolation-filters="sRGB">
<feFlood flood-opacity="0" result="BackgroundImageFix"/>
<feBlend mode="normal" in="SourceGraphic" in2="BackgroundImageFix" result="shape"/>
<feGaussianBlur stdDeviation="0.5" result="effect1_foregroundBlur_212_293"/>
</filter>
<filter id="filter4_i_212_293" x="5.948" y="7.03979" width="5.48014" height="5.22715" filterUnits="userSpaceOnUse" color-interpolation-filters="sRGB">
<feFlood flood-opacity="0" result="BackgroundImageFix"/>
<feBlend mode="normal" in="SourceGraphic" in2="BackgroundImageFix" result="shape"/>
<feColorMatrix in="SourceAlpha" type="matrix" values="0 0 0 0 0 0 0 0 0 0 0 0 0 0 0 0 0 0 127 0" result="hardAlpha"/>
<feOffset dx="0.4" dy="0.4"/>
<feGaussianBlur stdDeviation="0.3"/>
<feComposite in2="hardAlpha" operator="arithmetic" k2="-1" k3="1"/>
<feColorMatrix type="matrix" values="0 0 0 0 0.298039 0 0 0 0 0.211765 0 0 0 0 0.211765 0 0 0 1 0"/>
<feBlend mode="normal" in2="shape" result="effect1_innerShadow_212_293"/>
</filter>
<filter id="filter5_i_212_293" x="20.5329" y="7.03979" width="5.4802" height="5.22715" filterUnits="userSpaceOnUse" color-interpolation-filters="sRGB">
<feFlood flood-opacity="0" result="BackgroundImageFix"/>
<feBlend mode="normal" in="SourceGraphic" in2="BackgroundImageFix" result="shape"/>
<feColorMatrix in="SourceAlpha" type="matrix" values="0 0 0 0 0 0 0 0 0 0 0 0 0 0 0 0 0 0 127 0" result="hardAlpha"/>
<feOffset dx="-0.4" dy="0.4"/>
<feGaussianBlur stdDeviation="0.3"/>
<feComposite in2="hardAlpha" operator="arithmetic" k2="-1" k3="1"/>
<feColorMatrix type="matrix" values="0 0 0 0 0.368627 0 0 0 0 0.309804 0 0 0 0 0.309804 0 0 0 1 0"/>
<feBlend mode="normal" in2="shape" result="effect1_innerShadow_212_293"/>
</filter>
<filter id="filter6_i_212_293" x="12.1828" y="21.5938" width="7.99631" height="3.95508" filterUnits="userSpaceOnUse" color-interpolation-filters="sRGB">
<feFlood flood-opacity="0" result="BackgroundImageFix"/>
<feBlend mode="normal" in="SourceGraphic" in2="BackgroundImageFix" result="shape"/>
<feColorMatrix in="SourceAlpha" type="matrix" values="0 0 0 0 0 0 0 0 0 0 0 0 0 0 0 0 0 0 127 0" result="hardAlpha"/>
<feOffset dx="0.4" dy="0.5"/>
<feGaussianBlur stdDeviation="0.375"/>
<feComposite in2="hardAlpha" operator="arithmetic" k2="-1" k3="1"/>
<feColorMatrix type="matrix" values="0 0 0 0 0.266667 0 0 0 0 0.196078 0 0 0 0 0.215686 0 0 0 1 0"/>
<feBlend mode="normal" in2="shape" result="effect1_innerShadow_212_293"/>
</filter>
<radialGradient id="paint0_radial_212_293" cx="0" cy="0" r="1" gradientUnits="userSpaceOnUse" gradientTransform="translate(25.5002 8.99958) rotate(132.839) scale(37.5033)">
<stop stop-color="#FFF478"/>
<stop offset="0.475" stop-color="#FFB02E"/>
<stop offset="1" stop-color="#F70A8D"/>
</radialGradient>
<radialGradient id="paint1_radial_212_293" cx="0" cy="0" r="1" gradientUnits="userSpaceOnUse" gradientTransform="translate(25.4988 9.00064) rotate(131.878) scale(38.9487)">
<stop stop-color="#FFF478"/>
<stop offset="0.475" stop-color="#FFB02E"/>
<stop offset="1" stop-color="#F70A8D"/>
</radialGradient>
<radialGradient id="paint2_radial_212_293" cx="0" cy="0" r="1" gradientUnits="userSpaceOnUse" gradientTransform="translate(15.9993 12.4997) rotate(101.31) scale(17.8466 22.8581)">
<stop offset="0.788" stop-color="#F59639" stop-opacity="0"/>
<stop offset="0.973" stop-color="#FF7DCE"/>
</radialGradient>
<radialGradient id="paint3_radial_212_293" cx="0" cy="0" r="1" gradientUnits="userSpaceOnUse" gradientTransform="translate(18 14) rotate(135) scale(41.0122)">
<stop offset="0.315" stop-opacity="0"/>
<stop offset="1"/>
</radialGradient>
<radialGradient id="paint4_radial_212_293" cx="0" cy="0" r="1" gradientUnits="userSpaceOnUse" gradientTransform="translate(16 17.0008) rotate(77.692) scale(28.1469)">
<stop offset="0.508" stop-color="#7D6133" stop-opacity="0"/>
<stop offset="1" stop-color="#715B32"/>
</radialGradient>
<radialGradient id="paint5_radial_212_293" cx="0" cy="0" r="1" gradientUnits="userSpaceOnUse" gradientTransform="translate(16.5 16.5) rotate(55.713) scale(13.3135 9.65032)">
<stop stop-color="#FFB849"/>
<stop offset="1" stop-color="#FFB847" stop-opacity="0"/>
</radialGradient>
<radialGradient id="paint6_radial_212_293" cx="0" cy="0" r="1" gradientUnits="userSpaceOnUse" gradientTransform="translate(20.5 18) rotate(9.86582) scale(11.6726)">
<stop stop-color="#FFA64B"/>
<stop offset="0.9" stop-color="#FFAE46" stop-opacity="0"/>
</radialGradient>
<radialGradient id="paint7_radial_212_293" cx="0" cy="0" r="1" gradientUnits="userSpaceOnUse" gradientTransform="translate(17.5001 15.0003) rotate(43.971) scale(59.0529)">
<stop offset="0.185" stop-opacity="0"/>
<stop offset="1" stop-opacity="0.4"/>
</radialGradient>
<radialGradient id="paint8_radial_212_293" cx="0" cy="0" r="1" gradientUnits="userSpaceOnUse" gradientTransform="translate(9.85499 21.0501) rotate(-64.8852) scale(0.748504 2.02764)">
<stop stop-color="#4C5FE0"/>
<stop offset="1" stop-color="#4C5FE0" stop-opacity="0"/>
</radialGradient>
<radialGradient id="paint9_radial_212_293" cx="0" cy="0" r="1" gradientUnits="userSpaceOnUse" gradientTransform="translate(24.8671 19.4281) rotate(133.002) scale(1.90151 1.69016)">
<stop stop-color="#5596FF"/>
<stop offset="1" stop-color="#5596FF" stop-opacity="0"/>
</radialGradient>
<radialGradient id="paint10_radial_212_293" cx="0" cy="0" r="1" gradientUnits="userSpaceOnUse" gradientTransform="translate(20.914 19.0371) rotate(90) scale(1.09367 3)">
<stop stop-color="#3D7FFF"/>
<stop offset="1" stop-color="#4377FF" stop-opacity="0"/>
</radialGradient>
<linearGradient id="paint11_linear_212_293" x1="10.379" y1="7.70709" x2="8.48902" y2="11.9181" gradientUnits="userSpaceOnUse">
<stop stop-color="#CE8D24"/>
<stop offset="1" stop-color="#D39522"/>
</linearGradient>
<linearGradient id="paint12_linear_212_293" x1="21.146" y1="7.70709" x2="23.601" y2="12.0211" gradientUnits="userSpaceOnUse">
<stop stop-color="#D48C0E"/>
<stop offset="1" stop-color="#D59116"/>
</linearGradient>
<radialGradient id="paint13_radial_212_293" cx="0" cy="0" r="1" gradientUnits="userSpaceOnUse" gradientTransform="translate(22.522 17.019) rotate(-107.474) scale(2.96206 3.64293)">
<stop offset="0.135" stop-color="#FAF9F9" stop-opacity="0"/>
<stop offset="1" stop-color="#FAF9F9"/>
</radialGradient>
<radialGradient id="paint14_radial_212_293" cx="0" cy="0" r="1" gradientUnits="userSpaceOnUse" gradientTransform="translate(12.4601 17.0188) rotate(-107.474) scale(2.96206 3.64293)">
<stop offset="0.135" stop-color="#FAF9F9" stop-opacity="0"/>
<stop offset="1" stop-color="#FAF9F9"/>
</radialGradient>
<radialGradient id="paint15_radial_212_293" cx="0" cy="0" r="1" gradientUnits="userSpaceOnUse" gradientTransform="translate(15.98 21.9739) rotate(90) scale(2.71875 4.53629)">
<stop offset="0.5" stop-color="#4A3842"/>
<stop offset="1" stop-color="#542661"/>
</radialGradient>
</defs>
</svg>
