<svg width="32" height="32" viewBox="0 0 32 32" fill="none" xmlns="http://www.w3.org/2000/svg">
<path d="M15.999 29.998C25.333 29.998 29.998 23.73 29.998 15.998C29.998 8.268 25.333 2 15.998 2C6.665 2 2 8.268 2 15.999C2 23.73 6.664 29.998 15.999 29.998Z" fill="url(#paint0_radial_212_170)"/>
<path d="M15.999 29.998C25.333 29.998 29.998 23.73 29.998 15.998C29.998 8.268 25.333 2 15.998 2C6.665 2 2 8.268 2 15.999C2 23.73 6.664 29.998 15.999 29.998Z" fill="url(#paint1_radial_212_170)"/>
<path d="M15.999 29.998C25.333 29.998 29.998 23.73 29.998 15.998C29.998 8.268 25.333 2 15.998 2C6.665 2 2 8.268 2 15.999C2 23.73 6.664 29.998 15.999 29.998Z" fill="url(#paint2_radial_212_170)"/>
<path d="M15.999 29.998C25.333 29.998 29.998 23.73 29.998 15.998C29.998 8.268 25.333 2 15.998 2C6.665 2 2 8.268 2 15.999C2 23.73 6.664 29.998 15.999 29.998Z" fill="url(#paint3_radial_212_170)" fill-opacity="0.6"/>
<path d="M15.999 29.998C25.333 29.998 29.998 23.73 29.998 15.998C29.998 8.268 25.333 2 15.998 2C6.665 2 2 8.268 2 15.999C2 23.73 6.664 29.998 15.999 29.998Z" fill="url(#paint4_radial_212_170)"/>
<path d="M15.999 29.998C25.333 29.998 29.998 23.73 29.998 15.998C29.998 8.268 25.333 2 15.998 2C6.665 2 2 8.268 2 15.999C2 23.73 6.664 29.998 15.999 29.998Z" fill="url(#paint5_radial_212_170)"/>
<path d="M15.999 29.998C25.333 29.998 29.998 23.73 29.998 15.998C29.998 8.268 25.333 2 15.998 2C6.665 2 2 8.268 2 15.999C2 23.73 6.664 29.998 15.999 29.998Z" fill="url(#paint6_radial_212_170)"/>
<path d="M15.999 29.998C25.333 29.998 29.998 23.73 29.998 15.998C29.998 8.268 25.333 2 15.998 2C6.665 2 2 8.268 2 15.999C2 23.73 6.664 29.998 15.999 29.998Z" fill="url(#paint7_radial_212_170)"/>
<path d="M16 25C7 25 7 16 7 16H25C25 16 25 25 16 25Z" fill="url(#paint8_radial_212_170)"/>
<path d="M8 16.5V16H24V16.5C24 16.7652 23.8946 17.0196 23.7071 17.2071C23.5196 17.3946 23.2652 17.5 23 17.5H9C8.73478 17.5 8.48043 17.3946 8.29289 17.2071C8.10536 17.0196 8 16.7652 8 16.5Z" fill="url(#paint9_linear_212_170)"/>
<path d="M10.5 15.5C10.5 15.5 7.50002 15 5.45002 12.634C3.36002 10.222 5.31102 6.76696 9.00002 8.49996C10.577 5.92796 14.49 6.87996 13.97 9.99996C13.47 13 10.5 15.5 10.5 15.5V15.5Z" fill="url(#paint10_radial_212_170)"/>
<path d="M19.517 15.5C19.517 15.5 22.517 15 24.567 12.634C26.657 10.222 24.707 6.76696 21.017 8.49996C19.44 5.92796 15.527 6.87996 16.047 9.99996C16.547 13 19.517 15.5 19.517 15.5Z" fill="url(#paint11_radial_212_170)"/>
<path d="M10.593 14.27C9.54699 13.94 7.78499 13.192 6.43599 11.634C4.34599 9.22196 6.29699 5.76696 9.98599 7.49996C11.563 4.92796 15.476 5.87996 14.956 8.99996C14.607 11.09 13.061 12.937 12.154 13.866C11.9573 14.0721 11.707 14.2192 11.4311 14.2906C11.1553 14.362 10.865 14.3549 10.593 14.27V14.27Z" fill="url(#paint12_linear_212_170)"/>
<path d="M21.41 14.27C22.456 13.94 24.218 13.192 25.567 11.634C27.657 9.22196 25.707 5.76696 22.017 7.49996C20.44 4.92796 16.527 5.87996 17.047 8.99996C17.396 11.09 18.942 12.937 19.849 13.866C20.259 14.285 20.852 14.446 21.41 14.27Z" fill="url(#paint13_linear_212_170)"/>
<path d="M11.554 11.432C12.1398 10.8462 11.6649 9.42157 10.4934 8.25C9.3218 7.07843 7.89718 6.60355 7.31139 7.18934C6.72561 7.77513 7.20048 9.19975 8.37205 10.3713C9.54363 11.5429 10.9682 12.0178 11.554 11.432Z" fill="url(#paint14_radial_212_170)"/>
<path d="M21.5921 12.1217C22.6685 11.8738 23.2398 10.364 22.868 8.74941C22.4963 7.1348 21.3223 6.02681 20.2459 6.27464C19.1695 6.52248 18.5982 8.03229 18.97 9.6469C19.3417 11.2615 20.5157 12.3695 21.5921 12.1217Z" fill="url(#paint15_radial_212_170)"/>
<path d="M12.0173 8.68467C12.6031 9.27045 13.5529 9.27045 14.1387 8.68467C14.7244 8.09888 14.7244 7.14913 14.1387 6.56335C13.5529 5.97756 12.6031 5.97756 12.0173 6.56335C11.4316 7.14913 11.4316 8.09888 12.0173 8.68467Z" fill="url(#paint16_radial_212_170)"/>
<path d="M22.9568 10.0382C23.3473 10.4287 24.2971 10.1122 25.0781 9.33111C25.8592 8.55006 26.1758 7.60032 25.7852 7.20979C25.3947 6.81927 24.445 7.13585 23.6639 7.9169C22.8829 8.69795 22.5663 9.64769 22.9568 10.0382Z" fill="url(#paint17_radial_212_170)"/>
<defs>
<radialGradient id="paint0_radial_212_170" cx="0" cy="0" r="1" gradientUnits="userSpaceOnUse" gradientTransform="translate(25.5002 8.99958) rotate(132.839) scale(37.5033)">
<stop stop-color="#FFF478"/>
<stop offset="0.475" stop-color="#FFB02E"/>
<stop offset="1" stop-color="#F70A8D"/>
</radialGradient>
<radialGradient id="paint1_radial_212_170" cx="0" cy="0" r="1" gradientUnits="userSpaceOnUse" gradientTransform="translate(25.4988 9.00064) rotate(131.878) scale(38.9487)">
<stop stop-color="#FFF478"/>
<stop offset="0.475" stop-color="#FFB02E"/>
<stop offset="1" stop-color="#F70A8D"/>
</radialGradient>
<radialGradient id="paint2_radial_212_170" cx="0" cy="0" r="1" gradientUnits="userSpaceOnUse" gradientTransform="translate(15.9993 12.4997) rotate(101.31) scale(17.8466 22.8581)">
<stop offset="0.788" stop-color="#F59639" stop-opacity="0"/>
<stop offset="0.973" stop-color="#FF7DCE"/>
</radialGradient>
<radialGradient id="paint3_radial_212_170" cx="0" cy="0" r="1" gradientUnits="userSpaceOnUse" gradientTransform="translate(18 14) rotate(135) scale(41.0122)">
<stop offset="0.315" stop-opacity="0"/>
<stop offset="1"/>
</radialGradient>
<radialGradient id="paint4_radial_212_170" cx="0" cy="0" r="1" gradientUnits="userSpaceOnUse" gradientTransform="translate(16 17.0008) rotate(77.692) scale(28.1469)">
<stop offset="0.508" stop-color="#7D6133" stop-opacity="0"/>
<stop offset="1" stop-color="#715B32"/>
</radialGradient>
<radialGradient id="paint5_radial_212_170" cx="0" cy="0" r="1" gradientUnits="userSpaceOnUse" gradientTransform="translate(16.5 16.5) rotate(55.713) scale(13.3135 9.65032)">
<stop stop-color="#FFB849"/>
<stop offset="1" stop-color="#FFB847" stop-opacity="0"/>
</radialGradient>
<radialGradient id="paint6_radial_212_170" cx="0" cy="0" r="1" gradientUnits="userSpaceOnUse" gradientTransform="translate(20.5 18) rotate(9.86582) scale(11.6726)">
<stop stop-color="#FFA64B"/>
<stop offset="0.9" stop-color="#FFAE46" stop-opacity="0"/>
</radialGradient>
<radialGradient id="paint7_radial_212_170" cx="0" cy="0" r="1" gradientUnits="userSpaceOnUse" gradientTransform="translate(17.5001 15.0003) rotate(43.971) scale(59.0529)">
<stop offset="0.185" stop-opacity="0"/>
<stop offset="1" stop-opacity="0.4"/>
</radialGradient>
<radialGradient id="paint8_radial_212_170" cx="0" cy="0" r="1" gradientUnits="userSpaceOnUse" gradientTransform="translate(16 27) rotate(-90) scale(11 22)">
<stop stop-color="#F70A8D"/>
<stop offset="1" stop-color="#89029C"/>
</radialGradient>
<linearGradient id="paint9_linear_212_170" x1="16" y1="16" x2="16" y2="17.5" gradientUnits="userSpaceOnUse">
<stop stop-color="#ECCDFF"/>
<stop offset="1" stop-color="white"/>
</linearGradient>
<radialGradient id="paint10_radial_212_170" cx="0" cy="0" r="1" gradientUnits="userSpaceOnUse" gradientTransform="translate(14 14) rotate(-155.376) scale(13.2004 5.48694)">
<stop stop-color="#CC7521"/>
<stop offset="1" stop-color="#E6872B" stop-opacity="0"/>
</radialGradient>
<radialGradient id="paint11_radial_212_170" cx="0" cy="0" r="1" gradientUnits="userSpaceOnUse" gradientTransform="translate(20.001 11.0004) rotate(122.005) scale(4.71699)">
<stop stop-color="#EC812A"/>
<stop offset="1" stop-color="#FBA84C" stop-opacity="0"/>
</radialGradient>
<linearGradient id="paint12_linear_212_170" x1="12.986" y1="6.99996" x2="9.98599" y2="14" gradientUnits="userSpaceOnUse">
<stop stop-color="#CA0B4A"/>
<stop offset="1" stop-color="#F70A8D"/>
</linearGradient>
<linearGradient id="paint13_linear_212_170" x1="24" y1="6.99996" x2="19" y2="15" gradientUnits="userSpaceOnUse">
<stop stop-color="#CA0B4A"/>
<stop offset="1" stop-color="#F70A8D"/>
</linearGradient>
<radialGradient id="paint14_radial_212_170" cx="0" cy="0" r="1" gradientUnits="userSpaceOnUse" gradientTransform="translate(9.43201 9.30995) rotate(45) scale(3.10148 1.5764)">
<stop stop-color="#EC6686"/>
<stop offset="1" stop-color="#EC6686" stop-opacity="0"/>
</radialGradient>
<radialGradient id="paint15_radial_212_170" cx="0" cy="0" r="1" gradientUnits="userSpaceOnUse" gradientTransform="translate(21.0008 9.00077) rotate(68.199) scale(2.69258 1.82475)">
<stop stop-color="#EC6686"/>
<stop offset="0.26" stop-color="#EC6686"/>
<stop offset="1" stop-color="#EC6686" stop-opacity="0"/>
</radialGradient>
<radialGradient id="paint16_radial_212_170" cx="0" cy="0" r="1" gradientUnits="userSpaceOnUse" gradientTransform="translate(13.078 7.62401) rotate(135) scale(1.5)">
<stop stop-color="#EC6686"/>
<stop offset="1" stop-color="#EC6686" stop-opacity="0"/>
</radialGradient>
<radialGradient id="paint17_radial_212_170" cx="0" cy="0" r="1" gradientUnits="userSpaceOnUse" gradientTransform="translate(24.371 8.62401) rotate(135) scale(2 1)">
<stop stop-color="#EC6686"/>
<stop offset="1" stop-color="#EC6686" stop-opacity="0"/>
</radialGradient>
</defs>
</svg>
