<svg width="32" height="32" viewBox="0 0 32 32" fill="none" xmlns="http://www.w3.org/2000/svg">
<path d="M15.999 29.998C25.333 29.998 29.998 23.73 29.998 15.998C29.998 8.268 25.333 2 15.998 2C6.665 2 2 8.268 2 15.999C2 23.73 6.664 29.998 15.999 29.998Z" fill="url(#paint0_radial_212_216)"/>
<path d="M15.999 29.998C25.333 29.998 29.998 23.73 29.998 15.998C29.998 8.268 25.333 2 15.998 2C6.665 2 2 8.268 2 15.999C2 23.73 6.664 29.998 15.999 29.998Z" fill="url(#paint1_radial_212_216)"/>
<path d="M15.999 29.998C25.333 29.998 29.998 23.73 29.998 15.998C29.998 8.268 25.333 2 15.998 2C6.665 2 2 8.268 2 15.999C2 23.73 6.664 29.998 15.999 29.998Z" fill="url(#paint2_radial_212_216)"/>
<path d="M15.999 29.998C25.333 29.998 29.998 23.73 29.998 15.998C29.998 8.268 25.333 2 15.998 2C6.665 2 2 8.268 2 15.999C2 23.73 6.664 29.998 15.999 29.998Z" fill="url(#paint3_radial_212_216)" fill-opacity="0.6"/>
<path d="M15.999 29.998C25.333 29.998 29.998 23.73 29.998 15.998C29.998 8.268 25.333 2 15.998 2C6.665 2 2 8.268 2 15.999C2 23.73 6.664 29.998 15.999 29.998Z" fill="url(#paint4_radial_212_216)"/>
<path d="M15.999 29.998C25.333 29.998 29.998 23.73 29.998 15.998C29.998 8.268 25.333 2 15.998 2C6.665 2 2 8.268 2 15.999C2 23.73 6.664 29.998 15.999 29.998Z" fill="url(#paint5_radial_212_216)"/>
<path d="M15.999 29.998C25.333 29.998 29.998 23.73 29.998 15.998C29.998 8.268 25.333 2 15.998 2C6.665 2 2 8.268 2 15.999C2 23.73 6.664 29.998 15.999 29.998Z" fill="url(#paint6_radial_212_216)"/>
<path d="M15.999 29.998C25.333 29.998 29.998 23.73 29.998 15.998C29.998 8.268 25.333 2 15.998 2C6.665 2 2 8.268 2 15.999C2 23.73 6.664 29.998 15.999 29.998Z" fill="url(#paint7_radial_212_216)"/>
<path d="M15.999 29.998C25.333 29.998 29.998 23.73 29.998 15.998C29.998 8.268 25.333 2 15.998 2C6.665 2 2 8.268 2 15.999C2 23.73 6.664 29.998 15.999 29.998Z" fill="url(#paint8_radial_212_216)"/>
<path d="M25.998 18.76C28.2071 18.76 29.998 16.9691 29.998 14.76C29.998 12.5509 28.2071 10.76 25.998 10.76C23.7888 10.76 21.998 12.5509 21.998 14.76C21.998 16.9691 23.7888 18.76 25.998 18.76Z" fill="url(#paint9_radial_212_216)"/>
<path d="M6 18.76C8.20914 18.76 10 16.9691 10 14.76C10 12.5509 8.20914 10.76 6 10.76C3.79086 10.76 2 12.5509 2 14.76C2 16.9691 3.79086 18.76 6 18.76Z" fill="url(#paint10_radial_212_216)"/>
<path d="M10 15C10.429 15.8 12.143 18 16 18C19.857 18 21.571 15.8 22 15" stroke="url(#paint11_radial_212_216)" stroke-width="2" stroke-linecap="round"/>
<g filter="url(#filter0_f_212_216)">
<path d="M18.938 10.6561C18.938 10.6561 19.555 9.13409 21.125 9.40609C23.16 9.75809 23.313 11.7501 23.313 11.7501" stroke="url(#paint12_radial_212_216)" stroke-width="2" stroke-linecap="round"/>
</g>
<g filter="url(#filter1_f_212_216)">
<path d="M8.31299 10.6561C8.31299 10.6561 8.92999 9.13409 10.5 9.40609C12.535 9.75809 12.688 11.7501 12.688 11.7501" stroke="url(#paint13_radial_212_216)" stroke-width="2" stroke-linecap="round"/>
</g>
<path d="M8 11C8 11 8.25 9 10.5 9C12.75 9 13 11 13 11" stroke="url(#paint14_radial_212_216)" stroke-width="2" stroke-linecap="round"/>
<path d="M19 11C19 11 19.5 9 21.5 9C23.5 9 24 11 24 11" stroke="url(#paint15_radial_212_216)" stroke-width="2" stroke-linecap="round"/>
<g filter="url(#filter2_i_212_216)">
<path d="M4.093 19.362C4.28486 19.1338 4.55945 18.9911 4.85645 18.9652C5.15345 18.9393 5.44858 19.0324 5.677 19.224L8.649 21.717L8.399 20.82C8.35523 20.6709 8.34158 20.5146 8.35885 20.3602C8.37613 20.2058 8.42398 20.0564 8.49962 19.9207C8.57526 19.785 8.67717 19.6657 8.7994 19.5698C8.92163 19.4739 9.06174 19.4033 9.21155 19.3621C9.36136 19.3209 9.51787 19.31 9.67194 19.33C9.82602 19.35 9.97457 19.4004 10.1089 19.4784C10.2433 19.5564 10.3608 19.6604 10.4546 19.7842C10.5483 19.9081 10.6164 20.0495 10.655 20.2L11.344 22.739L12.18 24.751C12.195 24.788 12.21 24.826 12.22 24.863C12.519 25.438 12.687 26.094 12.687 26.79C12.687 29.066 10.882 30.91 8.656 30.91C7.676 30.91 6.778 30.554 6.08 29.96L1.597 26.663C1.4167 26.5305 1.27833 26.349 1.19845 26.14C1.11856 25.931 1.10054 25.7035 1.14652 25.4846C1.1925 25.2656 1.30054 25.0646 1.45775 24.9054C1.61495 24.7462 1.81465 24.6357 2.033 24.587L1.607 24.23C1.43769 24.0877 1.31188 23.9006 1.24399 23.6901C1.1761 23.4797 1.16888 23.2543 1.22315 23.04C1.27742 22.8256 1.391 22.6308 1.55086 22.478C1.71072 22.3252 1.91039 22.2205 2.127 22.176L1.995 22.066C1.87388 21.9675 1.77355 21.8459 1.69987 21.7083C1.62618 21.5707 1.58061 21.4197 1.5658 21.2643C1.55099 21.1089 1.56724 20.9522 1.61361 20.8031C1.65998 20.654 1.73554 20.5157 1.83588 20.3961C1.93623 20.2765 2.05936 20.1781 2.19811 20.1066C2.33686 20.035 2.48845 19.9918 2.64406 19.9794C2.79967 19.967 2.9562 19.9857 3.10452 20.0344C3.25284 20.0831 3.39 20.1608 3.508 20.263L3.994 20.67C3.75 20.27 3.774 19.741 4.093 19.362V19.362Z" fill="url(#paint16_radial_212_216)"/>
<path d="M4.093 19.362C4.28486 19.1338 4.55945 18.9911 4.85645 18.9652C5.15345 18.9393 5.44858 19.0324 5.677 19.224L8.649 21.717L8.399 20.82C8.35523 20.6709 8.34158 20.5146 8.35885 20.3602C8.37613 20.2058 8.42398 20.0564 8.49962 19.9207C8.57526 19.785 8.67717 19.6657 8.7994 19.5698C8.92163 19.4739 9.06174 19.4033 9.21155 19.3621C9.36136 19.3209 9.51787 19.31 9.67194 19.33C9.82602 19.35 9.97457 19.4004 10.1089 19.4784C10.2433 19.5564 10.3608 19.6604 10.4546 19.7842C10.5483 19.9081 10.6164 20.0495 10.655 20.2L11.344 22.739L12.18 24.751C12.195 24.788 12.21 24.826 12.22 24.863C12.519 25.438 12.687 26.094 12.687 26.79C12.687 29.066 10.882 30.91 8.656 30.91C7.676 30.91 6.778 30.554 6.08 29.96L1.597 26.663C1.4167 26.5305 1.27833 26.349 1.19845 26.14C1.11856 25.931 1.10054 25.7035 1.14652 25.4846C1.1925 25.2656 1.30054 25.0646 1.45775 24.9054C1.61495 24.7462 1.81465 24.6357 2.033 24.587L1.607 24.23C1.43769 24.0877 1.31188 23.9006 1.24399 23.6901C1.1761 23.4797 1.16888 23.2543 1.22315 23.04C1.27742 22.8256 1.391 22.6308 1.55086 22.478C1.71072 22.3252 1.91039 22.2205 2.127 22.176L1.995 22.066C1.87388 21.9675 1.77355 21.8459 1.69987 21.7083C1.62618 21.5707 1.58061 21.4197 1.5658 21.2643C1.55099 21.1089 1.56724 20.9522 1.61361 20.8031C1.65998 20.654 1.73554 20.5157 1.83588 20.3961C1.93623 20.2765 2.05936 20.1781 2.19811 20.1066C2.33686 20.035 2.48845 19.9918 2.64406 19.9794C2.79967 19.967 2.9562 19.9857 3.10452 20.0344C3.25284 20.0831 3.39 20.1608 3.508 20.263L3.994 20.67C3.75 20.27 3.774 19.741 4.093 19.362V19.362Z" fill="url(#paint17_linear_212_216)"/>
<path d="M4.093 19.362C4.28486 19.1338 4.55945 18.9911 4.85645 18.9652C5.15345 18.9393 5.44858 19.0324 5.677 19.224L8.649 21.717L8.399 20.82C8.35523 20.6709 8.34158 20.5146 8.35885 20.3602C8.37613 20.2058 8.42398 20.0564 8.49962 19.9207C8.57526 19.785 8.67717 19.6657 8.7994 19.5698C8.92163 19.4739 9.06174 19.4033 9.21155 19.3621C9.36136 19.3209 9.51787 19.31 9.67194 19.33C9.82602 19.35 9.97457 19.4004 10.1089 19.4784C10.2433 19.5564 10.3608 19.6604 10.4546 19.7842C10.5483 19.9081 10.6164 20.0495 10.655 20.2L11.344 22.739L12.18 24.751C12.195 24.788 12.21 24.826 12.22 24.863C12.519 25.438 12.687 26.094 12.687 26.79C12.687 29.066 10.882 30.91 8.656 30.91C7.676 30.91 6.778 30.554 6.08 29.96L1.597 26.663C1.4167 26.5305 1.27833 26.349 1.19845 26.14C1.11856 25.931 1.10054 25.7035 1.14652 25.4846C1.1925 25.2656 1.30054 25.0646 1.45775 24.9054C1.61495 24.7462 1.81465 24.6357 2.033 24.587L1.607 24.23C1.43769 24.0877 1.31188 23.9006 1.24399 23.6901C1.1761 23.4797 1.16888 23.2543 1.22315 23.04C1.27742 22.8256 1.391 22.6308 1.55086 22.478C1.71072 22.3252 1.91039 22.2205 2.127 22.176L1.995 22.066C1.87388 21.9675 1.77355 21.8459 1.69987 21.7083C1.62618 21.5707 1.58061 21.4197 1.5658 21.2643C1.55099 21.1089 1.56724 20.9522 1.61361 20.8031C1.65998 20.654 1.73554 20.5157 1.83588 20.3961C1.93623 20.2765 2.05936 20.1781 2.19811 20.1066C2.33686 20.035 2.48845 19.9918 2.64406 19.9794C2.79967 19.967 2.9562 19.9857 3.10452 20.0344C3.25284 20.0831 3.39 20.1608 3.508 20.263L3.994 20.67C3.75 20.27 3.774 19.741 4.093 19.362V19.362Z" fill="url(#paint18_linear_212_216)"/>
<path d="M4.093 19.362C4.28486 19.1338 4.55945 18.9911 4.85645 18.9652C5.15345 18.9393 5.44858 19.0324 5.677 19.224L8.649 21.717L8.399 20.82C8.35523 20.6709 8.34158 20.5146 8.35885 20.3602C8.37613 20.2058 8.42398 20.0564 8.49962 19.9207C8.57526 19.785 8.67717 19.6657 8.7994 19.5698C8.92163 19.4739 9.06174 19.4033 9.21155 19.3621C9.36136 19.3209 9.51787 19.31 9.67194 19.33C9.82602 19.35 9.97457 19.4004 10.1089 19.4784C10.2433 19.5564 10.3608 19.6604 10.4546 19.7842C10.5483 19.9081 10.6164 20.0495 10.655 20.2L11.344 22.739L12.18 24.751C12.195 24.788 12.21 24.826 12.22 24.863C12.519 25.438 12.687 26.094 12.687 26.79C12.687 29.066 10.882 30.91 8.656 30.91C7.676 30.91 6.778 30.554 6.08 29.96L1.597 26.663C1.4167 26.5305 1.27833 26.349 1.19845 26.14C1.11856 25.931 1.10054 25.7035 1.14652 25.4846C1.1925 25.2656 1.30054 25.0646 1.45775 24.9054C1.61495 24.7462 1.81465 24.6357 2.033 24.587L1.607 24.23C1.43769 24.0877 1.31188 23.9006 1.24399 23.6901C1.1761 23.4797 1.16888 23.2543 1.22315 23.04C1.27742 22.8256 1.391 22.6308 1.55086 22.478C1.71072 22.3252 1.91039 22.2205 2.127 22.176L1.995 22.066C1.87388 21.9675 1.77355 21.8459 1.69987 21.7083C1.62618 21.5707 1.58061 21.4197 1.5658 21.2643C1.55099 21.1089 1.56724 20.9522 1.61361 20.8031C1.65998 20.654 1.73554 20.5157 1.83588 20.3961C1.93623 20.2765 2.05936 20.1781 2.19811 20.1066C2.33686 20.035 2.48845 19.9918 2.64406 19.9794C2.79967 19.967 2.9562 19.9857 3.10452 20.0344C3.25284 20.0831 3.39 20.1608 3.508 20.263L3.994 20.67C3.75 20.27 3.774 19.741 4.093 19.362V19.362Z" fill="url(#paint19_radial_212_216)"/>
</g>
<path d="M3.02203 24.7641C2.76888 24.5797 2.45282 24.5033 2.14338 24.5519C1.83395 24.6005 1.55648 24.77 1.37203 25.0231C1.18757 25.2763 1.11123 25.5923 1.1598 25.9018C1.20837 26.2112 1.37788 26.4887 1.63103 26.6731L2.16703 27.0651C2.50123 27.3106 2.90889 27.4354 3.32327 27.4191C3.73765 27.4027 4.1342 27.2462 4.44803 26.9751L5.19203 26.3331L3.02203 24.7631V24.7641Z" fill="url(#paint20_linear_212_216)"/>
<path d="M6.156 25.172C5.938 25.297 5.178 25.585 5 25.797C4.582 26.295 4.35 26.436 3.851 26.018L1.721 24.23C1.48179 24.0295 1.33203 23.7422 1.30465 23.4312C1.27727 23.1203 1.37452 22.8112 1.575 22.572C2.003 22.062 2.565 22.056 3.067 22.492L6.157 25.172H6.156Z" fill="url(#paint21_linear_212_216)"/>
<path d="M7.37502 23.7811C7.00002 23.9841 6.75002 24.2191 6.35902 24.5471C5.94202 25.0451 5.68502 25.2651 5.18702 24.8471L2.01502 22.0661C1.89389 21.9676 1.79357 21.846 1.71988 21.7084C1.64619 21.5708 1.60062 21.4199 1.58581 21.2645C1.571 21.1091 1.58726 20.9523 1.63363 20.8032C1.67999 20.6542 1.75555 20.5158 1.8559 20.3962C1.95624 20.2767 2.07937 20.1782 2.21812 20.1067C2.35687 20.0352 2.50846 19.9919 2.66408 19.9795C2.81969 19.9672 2.97621 19.9858 3.12453 20.0345C3.27285 20.0832 3.41001 20.1609 3.52802 20.2631L4.01402 20.6701C4.07602 20.7721 4.15502 20.8651 4.25202 20.9461L7.37502 23.7811V23.7811Z" fill="url(#paint22_linear_212_216)"/>
<path d="M5.64199 19.1771C5.5318 19.0845 5.40378 19.0155 5.26585 18.9743C5.12791 18.9332 4.983 18.9208 4.84008 18.9379C4.69716 18.955 4.55927 19.0012 4.43494 19.0738C4.31061 19.1463 4.20249 19.2436 4.11727 19.3596C4.03205 19.4756 3.97155 19.6079 3.9395 19.7482C3.90745 19.8885 3.90453 20.0339 3.93094 20.1754C3.95735 20.3169 4.01251 20.4515 4.09302 20.5708C4.17353 20.6901 4.27766 20.7917 4.39899 20.8691L9.21899 23.9531L8.66899 21.7161L5.64199 19.1761V19.1771Z" fill="url(#paint23_radial_212_216)"/>
<g filter="url(#filter3_f_212_216)">
<path d="M5.19202 19.8711L8.25502 22.5271" stroke="url(#paint24_linear_212_216)" stroke-linecap="round"/>
</g>
<g filter="url(#filter4_f_212_216)">
<path d="M2.95398 20.8711L6.01598 23.5271" stroke="url(#paint25_linear_212_216)" stroke-linecap="round"/>
</g>
<g filter="url(#filter5_f_212_216)">
<path d="M2.43799 22.9021L5.50099 25.5581" stroke="url(#paint26_linear_212_216)" stroke-linecap="round"/>
</g>
<g filter="url(#filter6_f_212_216)">
<path d="M2.43799 25.25L4.71799 26.922" stroke="url(#paint27_linear_212_216)" stroke-linecap="round"/>
</g>
<g filter="url(#filter7_i_212_216)">
<path d="M27.923 19.373C27.8281 19.2598 27.7118 19.1664 27.5807 19.0982C27.4497 19.0299 27.3065 18.9882 27.1593 18.9752C27.0121 18.9623 26.8638 18.9786 26.7229 19.023C26.582 19.0674 26.4512 19.1391 26.338 19.234L23.366 21.728L23.616 20.831C23.6598 20.682 23.6734 20.5257 23.6562 20.3713C23.6389 20.2169 23.591 20.0675 23.5154 19.9318C23.4398 19.7961 23.3378 19.6768 23.2156 19.5809C23.0934 19.485 22.9533 19.4144 22.8035 19.3732C22.6537 19.332 22.4971 19.3211 22.3431 19.3411C22.189 19.361 22.0404 19.4115 21.9061 19.4895C21.7717 19.5675 21.6542 19.6714 21.5605 19.7953C21.4667 19.9192 21.3986 20.0605 21.36 20.211L20.672 22.75L19.835 24.762C19.82 24.7991 19.8066 24.8368 19.795 24.875C19.4871 25.4703 19.3269 26.1309 19.328 26.801C19.328 29.077 21.133 30.921 23.36 30.921C24.34 30.921 25.238 30.565 25.936 29.971L30.419 26.674C30.5993 26.5416 30.7377 26.3601 30.8176 26.1511C30.8974 25.9421 30.9155 25.7146 30.8695 25.4956C30.8235 25.2767 30.7155 25.0756 30.5583 24.9165C30.4011 24.7573 30.2014 24.6467 29.983 24.598L30.409 24.241C30.5783 24.0988 30.7041 23.9117 30.772 23.7012C30.8399 23.4908 30.8471 23.2654 30.7929 23.051C30.7386 22.8367 30.625 22.6419 30.4652 22.4891C30.3053 22.3363 30.1056 22.2316 29.889 22.187L30.02 22.077C30.2536 21.8748 30.3983 21.5887 30.4228 21.2807C30.4473 20.9727 30.3497 20.6674 30.1511 20.4307C29.9525 20.194 29.6687 20.0449 29.3611 20.0156C29.0536 19.9863 28.7468 20.0791 28.507 20.274L28.022 20.681C28.266 20.281 28.241 19.752 27.922 19.373H27.923Z" fill="url(#paint28_radial_212_216)"/>
<path d="M27.923 19.373C27.8281 19.2598 27.7118 19.1664 27.5807 19.0982C27.4497 19.0299 27.3065 18.9882 27.1593 18.9752C27.0121 18.9623 26.8638 18.9786 26.7229 19.023C26.582 19.0674 26.4512 19.1391 26.338 19.234L23.366 21.728L23.616 20.831C23.6598 20.682 23.6734 20.5257 23.6562 20.3713C23.6389 20.2169 23.591 20.0675 23.5154 19.9318C23.4398 19.7961 23.3378 19.6768 23.2156 19.5809C23.0934 19.485 22.9533 19.4144 22.8035 19.3732C22.6537 19.332 22.4971 19.3211 22.3431 19.3411C22.189 19.361 22.0404 19.4115 21.9061 19.4895C21.7717 19.5675 21.6542 19.6714 21.5605 19.7953C21.4667 19.9192 21.3986 20.0605 21.36 20.211L20.672 22.75L19.835 24.762C19.82 24.7991 19.8066 24.8368 19.795 24.875C19.4871 25.4703 19.3269 26.1309 19.328 26.801C19.328 29.077 21.133 30.921 23.36 30.921C24.34 30.921 25.238 30.565 25.936 29.971L30.419 26.674C30.5993 26.5416 30.7377 26.3601 30.8176 26.1511C30.8974 25.9421 30.9155 25.7146 30.8695 25.4956C30.8235 25.2767 30.7155 25.0756 30.5583 24.9165C30.4011 24.7573 30.2014 24.6467 29.983 24.598L30.409 24.241C30.5783 24.0988 30.7041 23.9117 30.772 23.7012C30.8399 23.4908 30.8471 23.2654 30.7929 23.051C30.7386 22.8367 30.625 22.6419 30.4652 22.4891C30.3053 22.3363 30.1056 22.2316 29.889 22.187L30.02 22.077C30.2536 21.8748 30.3983 21.5887 30.4228 21.2807C30.4473 20.9727 30.3497 20.6674 30.1511 20.4307C29.9525 20.194 29.6687 20.0449 29.3611 20.0156C29.0536 19.9863 28.7468 20.0791 28.507 20.274L28.022 20.681C28.266 20.281 28.241 19.752 27.922 19.373H27.923Z" fill="url(#paint29_linear_212_216)"/>
<path d="M27.923 19.373C27.8281 19.2598 27.7118 19.1664 27.5807 19.0982C27.4497 19.0299 27.3065 18.9882 27.1593 18.9752C27.0121 18.9623 26.8638 18.9786 26.7229 19.023C26.582 19.0674 26.4512 19.1391 26.338 19.234L23.366 21.728L23.616 20.831C23.6598 20.682 23.6734 20.5257 23.6562 20.3713C23.6389 20.2169 23.591 20.0675 23.5154 19.9318C23.4398 19.7961 23.3378 19.6768 23.2156 19.5809C23.0934 19.485 22.9533 19.4144 22.8035 19.3732C22.6537 19.332 22.4971 19.3211 22.3431 19.3411C22.189 19.361 22.0404 19.4115 21.9061 19.4895C21.7717 19.5675 21.6542 19.6714 21.5605 19.7953C21.4667 19.9192 21.3986 20.0605 21.36 20.211L20.672 22.75L19.835 24.762C19.82 24.7991 19.8066 24.8368 19.795 24.875C19.4871 25.4703 19.3269 26.1309 19.328 26.801C19.328 29.077 21.133 30.921 23.36 30.921C24.34 30.921 25.238 30.565 25.936 29.971L30.419 26.674C30.5993 26.5416 30.7377 26.3601 30.8176 26.1511C30.8974 25.9421 30.9155 25.7146 30.8695 25.4956C30.8235 25.2767 30.7155 25.0756 30.5583 24.9165C30.4011 24.7573 30.2014 24.6467 29.983 24.598L30.409 24.241C30.5783 24.0988 30.7041 23.9117 30.772 23.7012C30.8399 23.4908 30.8471 23.2654 30.7929 23.051C30.7386 22.8367 30.625 22.6419 30.4652 22.4891C30.3053 22.3363 30.1056 22.2316 29.889 22.187L30.02 22.077C30.2536 21.8748 30.3983 21.5887 30.4228 21.2807C30.4473 20.9727 30.3497 20.6674 30.1511 20.4307C29.9525 20.194 29.6687 20.0449 29.3611 20.0156C29.0536 19.9863 28.7468 20.0791 28.507 20.274L28.022 20.681C28.266 20.281 28.241 19.752 27.922 19.373H27.923Z" fill="url(#paint30_linear_212_216)"/>
<path d="M27.923 19.373C27.8281 19.2598 27.7118 19.1664 27.5807 19.0982C27.4497 19.0299 27.3065 18.9882 27.1593 18.9752C27.0121 18.9623 26.8638 18.9786 26.7229 19.023C26.582 19.0674 26.4512 19.1391 26.338 19.234L23.366 21.728L23.616 20.831C23.6598 20.682 23.6734 20.5257 23.6562 20.3713C23.6389 20.2169 23.591 20.0675 23.5154 19.9318C23.4398 19.7961 23.3378 19.6768 23.2156 19.5809C23.0934 19.485 22.9533 19.4144 22.8035 19.3732C22.6537 19.332 22.4971 19.3211 22.3431 19.3411C22.189 19.361 22.0404 19.4115 21.9061 19.4895C21.7717 19.5675 21.6542 19.6714 21.5605 19.7953C21.4667 19.9192 21.3986 20.0605 21.36 20.211L20.672 22.75L19.835 24.762C19.82 24.7991 19.8066 24.8368 19.795 24.875C19.4871 25.4703 19.3269 26.1309 19.328 26.801C19.328 29.077 21.133 30.921 23.36 30.921C24.34 30.921 25.238 30.565 25.936 29.971L30.419 26.674C30.5993 26.5416 30.7377 26.3601 30.8176 26.1511C30.8974 25.9421 30.9155 25.7146 30.8695 25.4956C30.8235 25.2767 30.7155 25.0756 30.5583 24.9165C30.4011 24.7573 30.2014 24.6467 29.983 24.598L30.409 24.241C30.5783 24.0988 30.7041 23.9117 30.772 23.7012C30.8399 23.4908 30.8471 23.2654 30.7929 23.051C30.7386 22.8367 30.625 22.6419 30.4652 22.4891C30.3053 22.3363 30.1056 22.2316 29.889 22.187L30.02 22.077C30.2536 21.8748 30.3983 21.5887 30.4228 21.2807C30.4473 20.9727 30.3497 20.6674 30.1511 20.4307C29.9525 20.194 29.6687 20.0449 29.3611 20.0156C29.0536 19.9863 28.7468 20.0791 28.507 20.274L28.022 20.681C28.266 20.281 28.241 19.752 27.922 19.373H27.923Z" fill="url(#paint31_radial_212_216)"/>
</g>
<path d="M28.995 24.762C29.2479 24.5785 29.5633 24.5029 29.8719 24.552C30.1805 24.601 30.4569 24.7706 30.6405 25.0235C30.824 25.2764 30.8996 25.5918 30.8505 25.9004C30.8015 26.209 30.6319 26.4855 30.379 26.669L29.749 27.128C29.5261 27.29 29.2712 27.4027 29.0014 27.4583C28.7315 27.514 28.4529 27.5115 28.1841 27.4509C27.9153 27.3904 27.6625 27.2731 27.4426 27.1071C27.2227 26.941 27.0408 26.73 26.909 26.488L26.824 26.333L28.995 24.762V24.762Z" fill="url(#paint32_linear_212_216)"/>
<path d="M26.09 25.0179C25.768 25.2969 26.036 25.8069 26.213 26.0179C26.631 26.5159 27.666 26.4359 28.164 26.0179L30.295 24.2299C30.793 23.8119 30.943 23.0639 30.525 22.5659C30.077 22.0319 29.438 22.0709 28.914 22.5319L26.091 25.0179H26.09Z" fill="url(#paint33_linear_212_216)"/>
<path d="M25.17 23.2121C24.668 23.6411 24.835 24.3021 25.17 24.7021C25.588 25.2001 26.33 25.2651 26.828 24.8471L30 22.0661C30.1212 21.9676 30.2215 21.846 30.2952 21.7084C30.3688 21.5708 30.4144 21.4199 30.4292 21.2645C30.444 21.1091 30.4278 20.9523 30.3814 20.8032C30.335 20.6542 30.2595 20.5158 30.1591 20.3962C30.0588 20.2767 29.9357 20.1782 29.7969 20.1067C29.6582 20.0352 29.5066 19.9919 29.351 19.9795C29.1954 19.9672 29.0388 19.9858 28.8905 20.0345C28.7422 20.0832 28.605 20.1609 28.487 20.2631L28.002 20.6701C27.9382 20.7744 27.8578 20.8676 27.764 20.9461L25.17 23.2111V23.2121Z" fill="url(#paint34_linear_212_216)"/>
<path d="M26.31 19.2299C26.5396 19.0399 26.8347 18.9476 27.1317 18.9732C27.4287 18.9987 27.7037 19.1399 27.8975 19.3664C28.0913 19.5929 28.1883 19.8864 28.1676 20.1838C28.147 20.4811 28.0103 20.7585 27.787 20.9559L25.6 22.8649C24.674 23.6729 23.236 22.9399 23.346 21.7149L26.309 19.2299H26.31Z" fill="url(#paint35_linear_212_216)"/>
<g filter="url(#filter8_f_212_216)">
<path d="M22.4392 20.767C22.7799 20.9966 23.2225 20.9359 23.4278 20.6314C23.633 20.3268 23.5232 19.8938 23.1825 19.6641C22.8418 19.4345 22.3991 19.4952 22.1939 19.7997C21.9886 20.1043 22.0984 20.5373 22.4392 20.767Z" fill="url(#paint36_radial_212_216)"/>
</g>
<g filter="url(#filter9_f_212_216)">
<path d="M26.5774 20.2955C26.7642 20.6947 27.2266 20.8728 27.6103 20.6932C27.994 20.5137 28.1536 20.0446 27.9668 19.6454C27.78 19.2462 27.3176 19.0681 26.9339 19.2477C26.5502 19.4272 26.3906 19.8963 26.5774 20.2955Z" fill="url(#paint37_radial_212_216)"/>
</g>
<g filter="url(#filter10_f_212_216)">
<path d="M29.1372 21.367C29.324 21.7662 29.7313 21.9701 30.0469 21.8224C30.3626 21.6747 30.467 21.2313 30.2802 20.8322C30.0934 20.433 29.6861 20.2291 29.3705 20.3768C29.0548 20.5245 28.9504 20.9678 29.1372 21.367Z" fill="url(#paint38_radial_212_216)"/>
</g>
<g filter="url(#filter11_f_212_216)">
<path d="M29.5065 23.5404C29.6933 23.9395 30.1006 24.1434 30.4162 23.9957C30.7319 23.848 30.8363 23.4047 30.6495 23.0055C30.4628 22.6063 30.0555 22.4024 29.7398 22.5501C29.4242 22.6978 29.3197 23.1412 29.5065 23.5404Z" fill="url(#paint39_radial_212_216)"/>
</g>
<g filter="url(#filter12_f_212_216)">
<path d="M29.6155 25.9625C29.8023 26.3617 30.2096 26.5655 30.5252 26.4178C30.8409 26.2701 30.9453 25.8268 30.7586 25.4276C30.5718 25.0284 30.1645 24.8246 29.8488 24.9723C29.5332 25.12 29.4287 25.5633 29.6155 25.9625Z" fill="url(#paint40_radial_212_216)"/>
</g>
<g filter="url(#filter13_f_212_216)">
<path d="M23.096 23.125C24.877 23.875 26.346 25.719 26.346 27.563" stroke="#FFEA6E" stroke-opacity="0.6" stroke-linecap="round"/>
</g>
<defs>
<filter id="filter0_f_212_216" x="17.4377" y="7.87305" width="7.37531" height="5.3772" filterUnits="userSpaceOnUse" color-interpolation-filters="sRGB">
<feFlood flood-opacity="0" result="BackgroundImageFix"/>
<feBlend mode="normal" in="SourceGraphic" in2="BackgroundImageFix" result="shape"/>
<feGaussianBlur stdDeviation="0.25" result="effect1_foregroundBlur_212_216"/>
</filter>
<filter id="filter1_f_212_216" x="6.81274" y="7.87305" width="7.37531" height="5.3772" filterUnits="userSpaceOnUse" color-interpolation-filters="sRGB">
<feFlood flood-opacity="0" result="BackgroundImageFix"/>
<feBlend mode="normal" in="SourceGraphic" in2="BackgroundImageFix" result="shape"/>
<feGaussianBlur stdDeviation="0.25" result="effect1_foregroundBlur_212_216"/>
</filter>
<filter id="filter2_i_212_216" x="1.12164" y="16.9609" width="13.5654" height="13.949" filterUnits="userSpaceOnUse" color-interpolation-filters="sRGB">
<feFlood flood-opacity="0" result="BackgroundImageFix"/>
<feBlend mode="normal" in="SourceGraphic" in2="BackgroundImageFix" result="shape"/>
<feColorMatrix in="SourceAlpha" type="matrix" values="0 0 0 0 0 0 0 0 0 0 0 0 0 0 0 0 0 0 127 0" result="hardAlpha"/>
<feOffset dx="2" dy="-2"/>
<feGaussianBlur stdDeviation="2"/>
<feComposite in2="hardAlpha" operator="arithmetic" k2="-1" k3="1"/>
<feColorMatrix type="matrix" values="0 0 0 0 0 0 0 0 0 0 0 0 0 0 0 0 0 0 0.08 0"/>
<feBlend mode="normal" in2="shape" result="effect1_innerShadow_212_216"/>
</filter>
<filter id="filter3_f_212_216" x="3.69202" y="18.3711" width="6.06299" height="5.65601" filterUnits="userSpaceOnUse" color-interpolation-filters="sRGB">
<feFlood flood-opacity="0" result="BackgroundImageFix"/>
<feBlend mode="normal" in="SourceGraphic" in2="BackgroundImageFix" result="shape"/>
<feGaussianBlur stdDeviation="0.5" result="effect1_foregroundBlur_212_216"/>
</filter>
<filter id="filter4_f_212_216" x="1.45398" y="19.3711" width="6.06201" height="5.65601" filterUnits="userSpaceOnUse" color-interpolation-filters="sRGB">
<feFlood flood-opacity="0" result="BackgroundImageFix"/>
<feBlend mode="normal" in="SourceGraphic" in2="BackgroundImageFix" result="shape"/>
<feGaussianBlur stdDeviation="0.5" result="effect1_foregroundBlur_212_216"/>
</filter>
<filter id="filter5_f_212_216" x="0.937988" y="21.4021" width="6.06299" height="5.65601" filterUnits="userSpaceOnUse" color-interpolation-filters="sRGB">
<feFlood flood-opacity="0" result="BackgroundImageFix"/>
<feBlend mode="normal" in="SourceGraphic" in2="BackgroundImageFix" result="shape"/>
<feGaussianBlur stdDeviation="0.5" result="effect1_foregroundBlur_212_216"/>
</filter>
<filter id="filter6_f_212_216" x="0.937927" y="23.75" width="5.28009" height="4.67212" filterUnits="userSpaceOnUse" color-interpolation-filters="sRGB">
<feFlood flood-opacity="0" result="BackgroundImageFix"/>
<feBlend mode="normal" in="SourceGraphic" in2="BackgroundImageFix" result="shape"/>
<feGaussianBlur stdDeviation="0.5" result="effect1_foregroundBlur_212_216"/>
</filter>
<filter id="filter7_i_212_216" x="19.328" y="16.9709" width="13.5663" height="13.9502" filterUnits="userSpaceOnUse" color-interpolation-filters="sRGB">
<feFlood flood-opacity="0" result="BackgroundImageFix"/>
<feBlend mode="normal" in="SourceGraphic" in2="BackgroundImageFix" result="shape"/>
<feColorMatrix in="SourceAlpha" type="matrix" values="0 0 0 0 0 0 0 0 0 0 0 0 0 0 0 0 0 0 127 0" result="hardAlpha"/>
<feOffset dx="2" dy="-2"/>
<feGaussianBlur stdDeviation="2"/>
<feComposite in2="hardAlpha" operator="arithmetic" k2="-1" k3="1"/>
<feColorMatrix type="matrix" values="0 0 0 0 0 0 0 0 0 0 0 0 0 0 0 0 0 0 0.08 0"/>
<feBlend mode="normal" in2="shape" result="effect1_innerShadow_212_216"/>
</filter>
<filter id="filter8_f_212_216" x="21.5905" y="19.0249" width="2.44073" height="2.38135" filterUnits="userSpaceOnUse" color-interpolation-filters="sRGB">
<feFlood flood-opacity="0" result="BackgroundImageFix"/>
<feBlend mode="normal" in="SourceGraphic" in2="BackgroundImageFix" result="shape"/>
<feGaussianBlur stdDeviation="0.25" result="effect1_foregroundBlur_212_216"/>
</filter>
<filter id="filter9_f_212_216" x="25.9993" y="18.6777" width="2.54565" height="2.58545" filterUnits="userSpaceOnUse" color-interpolation-filters="sRGB">
<feFlood flood-opacity="0" result="BackgroundImageFix"/>
<feBlend mode="normal" in="SourceGraphic" in2="BackgroundImageFix" result="shape"/>
<feGaussianBlur stdDeviation="0.25" result="effect1_foregroundBlur_212_216"/>
</filter>
<filter id="filter10_f_212_216" x="28.5445" y="19.8286" width="2.32843" height="2.54175" filterUnits="userSpaceOnUse" color-interpolation-filters="sRGB">
<feFlood flood-opacity="0" result="BackgroundImageFix"/>
<feBlend mode="normal" in="SourceGraphic" in2="BackgroundImageFix" result="shape"/>
<feGaussianBlur stdDeviation="0.25" result="effect1_foregroundBlur_212_216"/>
</filter>
<filter id="filter11_f_212_216" x="28.9138" y="22.002" width="2.32843" height="2.54175" filterUnits="userSpaceOnUse" color-interpolation-filters="sRGB">
<feFlood flood-opacity="0" result="BackgroundImageFix"/>
<feBlend mode="normal" in="SourceGraphic" in2="BackgroundImageFix" result="shape"/>
<feGaussianBlur stdDeviation="0.25" result="effect1_foregroundBlur_212_216"/>
</filter>
<filter id="filter12_f_212_216" x="29.0228" y="24.4241" width="2.32843" height="2.54175" filterUnits="userSpaceOnUse" color-interpolation-filters="sRGB">
<feFlood flood-opacity="0" result="BackgroundImageFix"/>
<feBlend mode="normal" in="SourceGraphic" in2="BackgroundImageFix" result="shape"/>
<feGaussianBlur stdDeviation="0.25" result="effect1_foregroundBlur_212_216"/>
</filter>
<filter id="filter13_f_212_216" x="21.0959" y="21.1248" width="7.25012" height="8.43823" filterUnits="userSpaceOnUse" color-interpolation-filters="sRGB">
<feFlood flood-opacity="0" result="BackgroundImageFix"/>
<feBlend mode="normal" in="SourceGraphic" in2="BackgroundImageFix" result="shape"/>
<feGaussianBlur stdDeviation="0.75" result="effect1_foregroundBlur_212_216"/>
</filter>
<radialGradient id="paint0_radial_212_216" cx="0" cy="0" r="1" gradientUnits="userSpaceOnUse" gradientTransform="translate(25.5002 8.99958) rotate(132.839) scale(37.5033)">
<stop stop-color="#FFF478"/>
<stop offset="0.475" stop-color="#FFB02E"/>
<stop offset="1" stop-color="#F70A8D"/>
</radialGradient>
<radialGradient id="paint1_radial_212_216" cx="0" cy="0" r="1" gradientUnits="userSpaceOnUse" gradientTransform="translate(25.4988 9.00064) rotate(131.878) scale(38.9487)">
<stop stop-color="#FFF478"/>
<stop offset="0.475" stop-color="#FFB02E"/>
<stop offset="1" stop-color="#F70A8D"/>
</radialGradient>
<radialGradient id="paint2_radial_212_216" cx="0" cy="0" r="1" gradientUnits="userSpaceOnUse" gradientTransform="translate(15.9993 12.4997) rotate(101.31) scale(17.8466 22.8581)">
<stop offset="0.788" stop-color="#F59639" stop-opacity="0"/>
<stop offset="0.973" stop-color="#FF7DCE"/>
</radialGradient>
<radialGradient id="paint3_radial_212_216" cx="0" cy="0" r="1" gradientUnits="userSpaceOnUse" gradientTransform="translate(18 14) rotate(135) scale(41.0122)">
<stop offset="0.315" stop-opacity="0"/>
<stop offset="1"/>
</radialGradient>
<radialGradient id="paint4_radial_212_216" cx="0" cy="0" r="1" gradientUnits="userSpaceOnUse" gradientTransform="translate(16 17.0008) rotate(77.692) scale(28.1469)">
<stop offset="0.508" stop-color="#7D6133" stop-opacity="0"/>
<stop offset="1" stop-color="#715B32"/>
</radialGradient>
<radialGradient id="paint5_radial_212_216" cx="0" cy="0" r="1" gradientUnits="userSpaceOnUse" gradientTransform="translate(16.5 16.5) rotate(55.713) scale(13.3135 9.65032)">
<stop stop-color="#FFB849"/>
<stop offset="1" stop-color="#FFB847" stop-opacity="0"/>
</radialGradient>
<radialGradient id="paint6_radial_212_216" cx="0" cy="0" r="1" gradientUnits="userSpaceOnUse" gradientTransform="translate(20.5 18) rotate(9.86582) scale(11.6726)">
<stop stop-color="#FFA64B"/>
<stop offset="0.9" stop-color="#FFAE46" stop-opacity="0"/>
</radialGradient>
<radialGradient id="paint7_radial_212_216" cx="0" cy="0" r="1" gradientUnits="userSpaceOnUse" gradientTransform="translate(17.5001 15.0003) rotate(43.971) scale(59.0529)">
<stop offset="0.185" stop-opacity="0"/>
<stop offset="1" stop-opacity="0.4"/>
</radialGradient>
<radialGradient id="paint8_radial_212_216" cx="0" cy="0" r="1" gradientUnits="userSpaceOnUse" gradientTransform="translate(19.2499 -4.56324) rotate(96.176) scale(33.6956)">
<stop offset="0.641" stop-color="#F59639" stop-opacity="0"/>
<stop offset="1" stop-color="#F68354"/>
</radialGradient>
<radialGradient id="paint9_radial_212_216" cx="0" cy="0" r="1" gradientUnits="userSpaceOnUse" gradientTransform="translate(25.9985 14.9492) rotate(89.995) scale(3.92207)">
<stop stop-color="#FF63C4" stop-opacity="0.5"/>
<stop offset="1" stop-color="#F59639" stop-opacity="0"/>
</radialGradient>
<radialGradient id="paint10_radial_212_216" cx="0" cy="0" r="1" gradientUnits="userSpaceOnUse" gradientTransform="translate(6.00039 14.9491) rotate(89.995) scale(3.92207)">
<stop stop-color="#E840A8" stop-opacity="0.5"/>
<stop offset="1" stop-color="#F59639" stop-opacity="0"/>
</radialGradient>
<radialGradient id="paint11_radial_212_216" cx="0" cy="0" r="1" gradientUnits="userSpaceOnUse" gradientTransform="translate(16 12.6) rotate(90) scale(7.2 7.87189)">
<stop offset="0.518" stop-color="#4E2553"/>
<stop offset="0.703" stop-color="#5B4852"/>
<stop offset="1" stop-color="#4E2553"/>
</radialGradient>
<radialGradient id="paint12_radial_212_216" cx="0" cy="0" r="1" gradientUnits="userSpaceOnUse" gradientTransform="translate(22.5 10.0631) rotate(124.912) scale(3.65839 6.56756)">
<stop stop-color="#CA7A1B"/>
<stop offset="0.634" stop-color="#CA7A1B" stop-opacity="0"/>
</radialGradient>
<radialGradient id="paint13_radial_212_216" cx="0" cy="0" r="1" gradientUnits="userSpaceOnUse" gradientTransform="translate(11.8743 10.0631) rotate(124.912) scale(3.65839 6.56756)">
<stop stop-color="#CA7A1B"/>
<stop offset="0.634" stop-color="#CA7A1B" stop-opacity="0"/>
</radialGradient>
<radialGradient id="paint14_radial_212_216" cx="0" cy="0" r="1" gradientUnits="userSpaceOnUse" gradientTransform="translate(10.5 11.188) rotate(-91.3479) scale(7.97096 9.82764)">
<stop offset="0.167" stop-color="#482641"/>
<stop offset="0.276" stop-color="#503A4A"/>
<stop offset="0.401" stop-color="#483637"/>
</radialGradient>
<radialGradient id="paint15_radial_212_216" cx="0" cy="0" r="1" gradientUnits="userSpaceOnUse" gradientTransform="translate(21.5 11.188) rotate(-91.3479) scale(7.97096 9.82764)">
<stop offset="0.167" stop-color="#482641"/>
<stop offset="0.276" stop-color="#503A4A"/>
<stop offset="0.401" stop-color="#483637"/>
</radialGradient>
<radialGradient id="paint16_radial_212_216" cx="0" cy="0" r="1" gradientUnits="userSpaceOnUse" gradientTransform="translate(-0.723997 18.353) rotate(42.3946) scale(27.83 27.7466)">
<stop offset="0.25" stop-color="#F9AF20"/>
<stop offset="0.641" stop-color="#FFC83C"/>
</radialGradient>
<linearGradient id="paint17_linear_212_216" x1="15.688" y1="23.313" x2="8.464" y2="26.375" gradientUnits="userSpaceOnUse">
<stop offset="0.328" stop-color="#FFF478"/>
<stop offset="0.724" stop-color="#FFF478" stop-opacity="0"/>
</linearGradient>
<linearGradient id="paint18_linear_212_216" x1="16.818" y1="10.76" x2="2.985" y2="31.4" gradientUnits="userSpaceOnUse">
<stop offset="0.844" stop-color="#FF63C4" stop-opacity="0"/>
<stop offset="0.941" stop-color="#FF63C4"/>
</linearGradient>
<radialGradient id="paint19_radial_212_216" cx="0" cy="0" r="1" gradientUnits="userSpaceOnUse" gradientTransform="translate(5.138 17.313) rotate(67.2716) scale(16.5 12.8062)">
<stop offset="0.776" stop-color="#FD61C2" stop-opacity="0"/>
<stop offset="0.941" stop-color="#FF63C4"/>
</radialGradient>
<linearGradient id="paint20_linear_212_216" x1="3.17203" y1="24.1561" x2="2.62002" y2="24.9981" gradientUnits="userSpaceOnUse">
<stop offset="0.386" stop-color="#83480A"/>
<stop offset="0.545" stop-color="#CD7313"/>
<stop offset="1" stop-color="#FA9428" stop-opacity="0"/>
</linearGradient>
<linearGradient id="paint21_linear_212_216" x1="4.813" y1="22.984" x2="4.027" y2="23.956" gradientUnits="userSpaceOnUse">
<stop offset="0.386" stop-color="#83480A"/>
<stop offset="0.545" stop-color="#CD7313"/>
<stop offset="1" stop-color="#FA9428" stop-opacity="0"/>
</linearGradient>
<linearGradient id="paint22_linear_212_216" x1="6.06302" y1="21.2811" x2="5.13202" y2="22.3131" gradientUnits="userSpaceOnUse">
<stop offset="0.386" stop-color="#83480A"/>
<stop offset="0.545" stop-color="#CD7313"/>
<stop offset="1" stop-color="#FA9428" stop-opacity="0"/>
</linearGradient>
<radialGradient id="paint23_radial_212_216" cx="0" cy="0" r="1" gradientUnits="userSpaceOnUse" gradientTransform="translate(9.53063 19.9695) rotate(152.835) scale(2.66945 6.63133)">
<stop offset="0.386" stop-color="#83480A"/>
<stop offset="0.545" stop-color="#CD7313"/>
<stop offset="1" stop-color="#FA9428" stop-opacity="0"/>
</radialGradient>
<linearGradient id="paint24_linear_212_216" x1="3.91102" y1="19.8711" x2="7.18702" y2="25.0291" gradientUnits="userSpaceOnUse">
<stop offset="0.328" stop-color="#FFF478" stop-opacity="0.5"/>
<stop offset="0.724" stop-color="#FFF478" stop-opacity="0"/>
</linearGradient>
<linearGradient id="paint25_linear_212_216" x1="1.67298" y1="20.8711" x2="4.94898" y2="26.0291" gradientUnits="userSpaceOnUse">
<stop offset="0.328" stop-color="#FFF478" stop-opacity="0.5"/>
<stop offset="0.724" stop-color="#FFF478" stop-opacity="0"/>
</linearGradient>
<linearGradient id="paint26_linear_212_216" x1="1.15699" y1="22.9021" x2="4.43299" y2="28.0611" gradientUnits="userSpaceOnUse">
<stop offset="0.328" stop-color="#FFF478" stop-opacity="0.5"/>
<stop offset="0.724" stop-color="#FFF478" stop-opacity="0"/>
</linearGradient>
<linearGradient id="paint27_linear_212_216" x1="1.15699" y1="25.25" x2="4.43299" y2="30.409" gradientUnits="userSpaceOnUse">
<stop offset="0.328" stop-color="#FFF478" stop-opacity="0.5"/>
<stop offset="0.724" stop-color="#FFF478" stop-opacity="0"/>
</linearGradient>
<radialGradient id="paint28_radial_212_216" cx="0" cy="0" r="1" gradientUnits="userSpaceOnUse" gradientTransform="translate(32.7396 18.3629) rotate(137.605) scale(27.83 27.7466)">
<stop offset="0.23" stop-color="#F9AF20"/>
<stop offset="0.538" stop-color="#FFD362"/>
<stop offset="0.824" stop-color="#F9AF20"/>
</radialGradient>
<linearGradient id="paint29_linear_212_216" x1="17.313" y1="24.313" x2="23.125" y2="24.947" gradientUnits="userSpaceOnUse">
<stop offset="0.214" stop-color="#CC6C07"/>
<stop offset="0.328" stop-color="#EE891E"/>
<stop offset="0.865" stop-color="#FA9428" stop-opacity="0"/>
</linearGradient>
<linearGradient id="paint30_linear_212_216" x1="15.197" y1="10.771" x2="29.03" y2="31.411" gradientUnits="userSpaceOnUse">
<stop offset="0.844" stop-color="#FF63C4" stop-opacity="0"/>
<stop offset="0.941" stop-color="#FF63C4"/>
</linearGradient>
<radialGradient id="paint31_radial_212_216" cx="0" cy="0" r="1" gradientUnits="userSpaceOnUse" gradientTransform="translate(26.8778 17.3241) rotate(112.728) scale(16.5 12.8062)">
<stop offset="0.776" stop-color="#FD61C2" stop-opacity="0"/>
<stop offset="0.941" stop-color="#FF63C4"/>
</radialGradient>
<linearGradient id="paint32_linear_212_216" x1="28.943" y1="24.005" x2="29.483" y2="24.834" gradientUnits="userSpaceOnUse">
<stop offset="0.386" stop-color="#83480A"/>
<stop offset="0.545" stop-color="#CD7313"/>
<stop offset="1" stop-color="#FA9428" stop-opacity="0"/>
</linearGradient>
<linearGradient id="paint33_linear_212_216" x1="27.018" y1="22.7809" x2="27.97" y2="23.8409" gradientUnits="userSpaceOnUse">
<stop offset="0.386" stop-color="#83480A"/>
<stop offset="0.545" stop-color="#CD7313"/>
<stop offset="1" stop-color="#FA9428" stop-opacity="0"/>
</linearGradient>
<linearGradient id="paint34_linear_212_216" x1="25.991" y1="20.9951" x2="26.977" y2="22.1801" gradientUnits="userSpaceOnUse">
<stop offset="0.386" stop-color="#83480A"/>
<stop offset="0.545" stop-color="#CD7313"/>
<stop offset="1" stop-color="#FA9428" stop-opacity="0"/>
</linearGradient>
<linearGradient id="paint35_linear_212_216" x1="26.12" y1="18.5829" x2="26.961" y2="19.6059" gradientUnits="userSpaceOnUse">
<stop offset="0.328" stop-color="#EE891E"/>
<stop offset="0.865" stop-color="#FA9428" stop-opacity="0"/>
</linearGradient>
<radialGradient id="paint36_radial_212_216" cx="0" cy="0" r="1" gradientUnits="userSpaceOnUse" gradientTransform="translate(22.8095 20.216) rotate(152.661) scale(0.82938 0.9118)">
<stop offset="0.328" stop-color="#FAF194" stop-opacity="0.2"/>
<stop offset="0.724" stop-color="#FFF478" stop-opacity="0"/>
</radialGradient>
<radialGradient id="paint37_radial_212_216" cx="0" cy="0" r="1" gradientUnits="userSpaceOnUse" gradientTransform="translate(27.2728 19.9715) rotate(-178.093) scale(0.94107 0.993549)">
<stop offset="0.328" stop-color="#FAF194" stop-opacity="0.4"/>
<stop offset="0.724" stop-color="#FFF478" stop-opacity="0"/>
</radialGradient>
<radialGradient id="paint38_radial_212_216" cx="0" cy="0" r="1" gradientUnits="userSpaceOnUse" gradientTransform="translate(29.71 21.1001) rotate(-173.32) scale(0.811318 0.948019)">
<stop offset="0.391" stop-color="#FAF194" stop-opacity="0.3"/>
<stop offset="0.813" stop-color="#FFF478" stop-opacity="0"/>
</radialGradient>
<radialGradient id="paint39_radial_212_216" cx="0" cy="0" r="1" gradientUnits="userSpaceOnUse" gradientTransform="translate(30.078 23.2729) rotate(-173.32) scale(0.811317 0.948017)">
<stop offset="0.328" stop-color="#FAF194" stop-opacity="0.3"/>
<stop offset="0.724" stop-color="#FFF478" stop-opacity="0"/>
</radialGradient>
<radialGradient id="paint40_radial_212_216" cx="0" cy="0" r="1" gradientUnits="userSpaceOnUse" gradientTransform="translate(30.187 25.6951) rotate(-173.32) scale(0.811318 0.948019)">
<stop offset="0.328" stop-color="#FAF194" stop-opacity="0.3"/>
<stop offset="0.724" stop-color="#FFF478" stop-opacity="0"/>
</radialGradient>
</defs>
</svg>
