<svg width="32" height="32" viewBox="0 0 32 32" fill="none" xmlns="http://www.w3.org/2000/svg">
<g clip-path="url(#clip0_205_143)">
<path d="M12.3664 24.5222C12.3668 24.7924 12.4514 25.0571 12.61 25.2823L13.3868 26.3861C13.5195 26.5748 13.6995 26.7296 13.9108 26.8367C14.122 26.9437 14.358 26.9997 14.5977 26.9997H17.4027C17.6424 26.9997 17.8784 26.9437 18.0897 26.8367C18.3009 26.7296 18.4809 26.5748 18.6136 26.3861L19.3905 25.2823C19.549 25.0571 19.6338 24.7927 19.6341 24.5222L19.6359 22.8743H12.3641L12.3664 24.5222ZM8 12.5618C8 14.4683 8.74773 16.2077 9.98 17.5367C10.7309 18.3467 11.9055 20.0388 12.3532 21.4662C12.355 21.4774 12.3564 21.4886 12.3582 21.4997H19.6418C19.6436 21.4886 19.645 21.4778 19.6468 21.4662C20.0945 20.0388 21.2691 18.3467 22.02 17.5367C23.2523 16.2077 24 14.4683 24 12.5618C24 8.37708 20.405 4.98641 15.975 4.9993C11.3382 5.01262 8 8.56442 8 12.5618ZM16 9.1243C13.995 9.1243 12.3636 10.6665 12.3636 12.5618C12.3636 12.9416 12.0382 13.2493 11.6364 13.2493C11.2345 13.2493 10.9091 12.9416 10.9091 12.5618C10.9091 9.90805 13.1927 7.7493 16 7.7493C16.4018 7.7493 16.7273 8.05696 16.7273 8.4368C16.7273 8.81665 16.4018 9.1243 16 9.1243Z" fill="currentColor"/>
</g>
<defs>
<clipPath id="clip0_205_143">
<rect width="16" height="22" fill="white" transform="translate(8 5)"/>
</clipPath>
</defs>
</svg>
