<svg width="32" height="32" viewBox="0 0 32 32" fill="none" xmlns="http://www.w3.org/2000/svg">
<circle cx="16" cy="16" r="15.5" stroke="currentColor"/>
<path d="M20.1422 17.2233C19.9939 17.2233 19.8488 17.1757 19.7255 17.0864C19.6022 16.9972 19.506 16.8704 19.4493 16.722C19.3925 16.5737 19.3777 16.4104 19.4066 16.2529C19.4355 16.0954 19.507 15.9507 19.6119 15.8371C19.7167 15.7236 19.8504 15.6462 19.9959 15.6149C20.1414 15.5836 20.2922 15.5996 20.4292 15.6611C20.5662 15.7226 20.6834 15.8266 20.7658 15.9602C20.8482 16.0937 20.8922 16.2507 20.8922 16.4113C20.8922 16.6266 20.8132 16.8332 20.6725 16.9855C20.5319 17.1377 20.3411 17.2233 20.1422 17.2233ZM11.8578 17.2233C11.7095 17.2233 11.5645 17.1757 11.4411 17.0864C11.3178 16.9972 11.2217 16.8704 11.1649 16.722C11.1081 16.5737 11.0933 16.4104 11.1222 16.2529C11.1512 16.0954 11.2226 15.9507 11.3275 15.8371C11.4324 15.7236 11.566 15.6462 11.7115 15.6149C11.857 15.5836 12.0078 15.5996 12.1448 15.6611C12.2819 15.7226 12.399 15.8266 12.4814 15.9602C12.5638 16.0937 12.6078 16.2507 12.6078 16.4113C12.6078 16.6266 12.5288 16.8332 12.3881 16.9855C12.2475 17.1377 12.0567 17.2233 11.8578 17.2233ZM20.4109 12.335L21.9091 9.52685C21.9329 9.48839 21.9492 9.44505 21.9569 9.39949C21.9647 9.35394 21.9637 9.30716 21.954 9.26204C21.9444 9.21692 21.9263 9.17442 21.9008 9.13718C21.8754 9.09994 21.8432 9.06875 21.8062 9.04554C21.7691 9.02233 21.7281 9.0076 21.6856 9.00226C21.6431 8.99692 21.6001 9.00107 21.5591 9.01448C21.5182 9.02788 21.4802 9.05024 21.4476 9.08018C21.4149 9.11012 21.3883 9.14699 21.3694 9.18852V9.18852L19.8525 12.0329C18.6408 11.4445 17.3279 11.1404 16 11.1404C14.6721 11.1404 13.3592 11.4445 12.1475 12.0329L10.6306 9.18852C10.6117 9.14699 10.5851 9.11012 10.5524 9.08018C10.5198 9.05024 10.4818 9.02788 10.4409 9.01448C10.3999 9.00107 10.3569 8.99692 10.3144 9.00226C10.2719 9.0076 10.2309 9.02233 10.1938 9.04554C10.1568 9.06875 10.1246 9.09994 10.0992 9.13718C10.0737 9.17442 10.0556 9.21692 10.046 9.26204C10.0363 9.30716 10.0353 9.35394 10.0431 9.39949C10.0508 9.44505 10.0671 9.48839 10.0909 9.52685L11.5891 12.335C9.01656 13.8498 7.2575 16.6691 7 20H25C24.7425 16.6691 22.9831 13.8498 20.4109 12.335" fill="currentColor"/>
</svg>
