<svg width="32" height="32" viewBox="0 0 32 32" fill="none" xmlns="http://www.w3.org/2000/svg">
<g clip-path="url(#clip0_205_144)">
<path d="M19.5714 18.875C18.764 18.875 18.0219 19.1652 17.4361 19.6504L13.7759 17.2734C13.8843 16.7639 13.8843 16.236 13.7759 15.7266L17.4361 13.3496C18.0219 13.8348 18.764 14.125 19.5714 14.125C21.465 14.125 23 12.53 23 10.5625C23 8.595 21.465 7 19.5714 7C17.6779 7 16.1429 8.595 16.1429 10.5625C16.1429 10.8281 16.1711 11.0869 16.2241 11.3359L12.5639 13.7129C11.9781 13.2277 11.236 12.9375 10.4286 12.9375C8.53504 12.9375 7 14.5325 7 16.5C7 18.4675 8.53504 20.0625 10.4286 20.0625C11.236 20.0625 11.9781 19.7723 12.5639 19.2871L16.2241 21.6641C16.17 21.9181 16.1428 22.1774 16.1429 22.4375C16.1429 24.405 17.6779 26 19.5714 26C21.465 26 23 24.405 23 22.4375C23 20.47 21.465 18.875 19.5714 18.875Z" fill="currentColor"/>
</g>
<defs>
<clipPath id="clip0_205_144">
<rect width="16" height="19" fill="white" transform="translate(7 7)"/>
</clipPath>
</defs>
</svg>
