<svg width="32" height="32" viewBox="0 0 32 32" fill="none" xmlns="http://www.w3.org/2000/svg">
<circle cx="16" cy="16" r="15.5" stroke="currentColor"/>
<path d="M12.6895 22.104C12.6895 22.1867 12.5968 22.2529 12.4798 22.2529C12.3468 22.2653 12.254 22.1991 12.254 22.104C12.254 22.0213 12.3468 21.9551 12.4637 21.9551C12.5847 21.9427 12.6895 22.0089 12.6895 22.104ZM11.4355 21.9179C11.4073 22.0006 11.4879 22.0957 11.6089 22.1205C11.7137 22.1619 11.8347 22.1205 11.8589 22.0378C11.8831 21.9551 11.8065 21.86 11.6855 21.8228C11.5806 21.7938 11.4637 21.8352 11.4355 21.9179ZM13.2177 21.8476C13.1008 21.8765 13.0202 21.9551 13.0323 22.0502C13.0444 22.1329 13.1492 22.1867 13.2702 22.1577C13.3871 22.1288 13.4677 22.0502 13.4556 21.9675C13.4435 21.8889 13.3347 21.8352 13.2177 21.8476ZM15.871 6C10.2782 6 6 10.3548 6 16.0908C6 20.6772 8.81452 24.6019 12.8347 25.9832C13.3508 26.0783 13.5323 25.7516 13.5323 25.4827C13.5323 25.2263 13.5202 23.812 13.5202 22.9435C13.5202 22.9435 10.6976 23.5638 10.1048 21.7111C10.1048 21.7111 9.64516 20.5076 8.98387 20.1975C8.98387 20.1975 8.06048 19.5482 9.04839 19.5606C9.04839 19.5606 10.0524 19.6433 10.6048 20.6276C11.4879 22.2239 12.9677 21.7649 13.5444 21.4919C13.6371 20.8302 13.8992 20.3712 14.1895 20.0982C11.9355 19.8418 9.66129 19.5068 9.66129 15.5284C9.66129 14.3911 9.96774 13.8204 10.6129 13.0925C10.5081 12.8237 10.1653 11.7154 10.7177 10.2845C11.5605 10.0157 13.5 11.4011 13.5 11.4011C14.3065 11.1695 15.1734 11.0496 16.0323 11.0496C16.8911 11.0496 17.7581 11.1695 18.5645 11.4011C18.5645 11.4011 20.504 10.0115 21.3468 10.2845C21.8992 11.7195 21.5565 12.8237 21.4516 13.0925C22.0968 13.8245 22.4919 14.3952 22.4919 15.5284C22.4919 19.5192 20.1169 19.8377 17.8629 20.0982C18.2339 20.4249 18.5484 21.0453 18.5484 22.0171C18.5484 23.4108 18.5363 25.1354 18.5363 25.4745C18.5363 25.7433 18.7218 26.07 19.2339 25.9749C23.2661 24.6019 26 20.6772 26 16.0908C26 10.3548 21.4637 6 15.871 6ZM9.91935 20.2636C9.86694 20.305 9.87903 20.4001 9.94758 20.4787C10.0121 20.5449 10.1048 20.5738 10.1573 20.52C10.2097 20.4787 10.1976 20.3836 10.129 20.305C10.0645 20.2388 9.97177 20.2099 9.91935 20.2636ZM9.48387 19.9287C9.45565 19.9824 9.49597 20.0486 9.57661 20.0899C9.64113 20.1313 9.72177 20.1189 9.75 20.061C9.77823 20.0072 9.7379 19.9411 9.65726 19.8997C9.57661 19.8749 9.5121 19.8873 9.48387 19.9287ZM10.7903 21.4009C10.7258 21.4547 10.75 21.5788 10.8427 21.6573C10.9355 21.7524 11.0524 21.7649 11.1048 21.6987C11.1573 21.6449 11.1331 21.5209 11.0524 21.4423C10.9637 21.3472 10.8427 21.3348 10.7903 21.4009ZM10.3306 20.793C10.2661 20.8343 10.2661 20.9419 10.3306 21.037C10.3952 21.1321 10.504 21.1735 10.5565 21.1321C10.621 21.0783 10.621 20.9708 10.5565 20.8757C10.5 20.7806 10.3952 20.7392 10.3306 20.793Z" fill="currentColor"/>
</svg>
