<svg width="32" height="32" viewBox="0 0 32 32" fill="none" xmlns="http://www.w3.org/2000/svg">
<circle cx="16" cy="16" r="15.5" stroke="currentColor"/>
<path d="M12.286 10.991C12.286 11.121 12.2687 11.2467 12.234 11.368C12.1993 11.4893 12.1387 11.5977 12.052 11.693C12.0173 11.745 11.9567 11.8143 11.87 11.901C11.7833 11.979 11.6663 12.0917 11.519 12.239C11.155 12.5423 10.8083 12.863 10.479 13.201C10.1583 13.539 9.84634 13.8943 9.54301 14.267C9.43901 14.3883 9.33501 14.514 9.23101 14.644C9.12701 14.774 9.04468 14.9083 8.98401 15.047C8.92334 15.1857 8.89301 15.333 8.89301 15.489C8.90168 15.645 8.96668 15.8053 9.08801 15.97C9.30468 16.2733 9.53435 16.5637 9.77701 16.841C10.0197 17.1183 10.2797 17.3913 10.557 17.66C10.7217 17.8333 10.8863 18.0023 11.051 18.167C11.2243 18.3317 11.389 18.4963 11.545 18.661C11.753 18.869 11.8787 19.09 11.922 19.324C11.9653 19.5493 11.9437 19.7487 11.857 19.922C11.7703 20.0953 11.6273 20.221 11.428 20.299C11.2373 20.377 11.0077 20.364 10.739 20.26C10.6003 20.1993 10.466 20.117 10.336 20.013C10.206 19.9177 10.0803 19.8093 9.95901 19.688C9.83768 19.558 9.72068 19.428 9.60801 19.298C9.49534 19.168 9.39134 19.0467 9.29601 18.934C7.66668 17.14 6.85201 15.9527 6.85201 15.372C6.85201 14.93 7.16834 14.2887 7.80101 13.448C8.04368 13.1447 8.31234 12.8283 8.60701 12.499C8.90168 12.161 9.23101 11.8273 9.59501 11.498C9.82034 11.2727 10.05 11.0517 10.284 10.835C10.5267 10.6097 10.791 10.419 11.077 10.263C11.1983 10.2023 11.3283 10.1763 11.467 10.185C11.6143 10.185 11.7487 10.2197 11.87 10.289C11.9913 10.3497 12.091 10.4407 12.169 10.562C12.247 10.6833 12.286 10.8263 12.286 10.991ZM14.2344 20.195C14.1304 20.195 14.0307 20.1777 13.9354 20.143C13.8401 20.1083 13.7577 20.0607 13.6884 20C13.6191 19.9393 13.5671 19.8657 13.5324 19.779C13.4977 19.6923 13.4891 19.5927 13.5064 19.48C13.4544 19.324 13.4501 19.1853 13.4934 19.064C13.5367 18.934 13.5931 18.804 13.6624 18.674H13.6494C13.9527 17.998 14.2474 17.335 14.5334 16.685C14.8281 16.0263 15.1357 15.372 15.4564 14.722C15.7424 14.1153 16.0067 13.5433 16.2494 13.006C16.4921 12.4687 16.7304 11.94 16.9644 11.42C17.0077 11.3247 17.0597 11.2293 17.1204 11.134C17.1811 11.0387 17.2504 10.965 17.3284 10.913C17.4064 10.8523 17.4974 10.8133 17.6014 10.796C17.7054 10.7787 17.8311 10.8003 17.9784 10.861C18.2037 10.9563 18.3684 11.0907 18.4724 11.264C18.5851 11.4373 18.6197 11.6367 18.5764 11.862C18.4551 12.174 18.3554 12.4297 18.2774 12.629C18.2081 12.8197 18.1344 12.9973 18.0564 13.162C17.9871 13.3267 17.9091 13.4957 17.8224 13.669C17.7357 13.8423 17.6231 14.0677 17.4844 14.345C17.3544 14.6223 17.1897 14.9733 16.9904 15.398C16.7997 15.814 16.5571 16.3513 16.2624 17.01C16.1064 17.3653 15.9461 17.7033 15.7814 18.024C15.6254 18.3447 15.4694 18.6653 15.3134 18.986C15.2614 19.0813 15.2051 19.1983 15.1444 19.337C15.0837 19.467 15.0187 19.61 14.9494 19.766C14.8801 19.9133 14.7804 20.0217 14.6504 20.091C14.5204 20.1603 14.3817 20.195 14.2344 20.195ZM19.6231 10.991C19.6231 10.8263 19.6621 10.6833 19.7401 10.562C19.8181 10.4407 19.9178 10.3497 20.0391 10.289C20.1604 10.2197 20.2904 10.185 20.4291 10.185C20.5764 10.1763 20.7108 10.2023 20.8321 10.263C21.1181 10.419 21.3781 10.6097 21.6121 10.835C21.8548 11.0517 22.0888 11.2727 22.3141 11.498C22.6781 11.8273 23.0074 12.161 23.3021 12.499C23.5968 12.8283 23.8654 13.1447 24.1081 13.448C24.7408 14.2887 25.0571 14.93 25.0571 15.372C25.0571 15.9527 24.2424 17.14 22.6131 18.934C22.5178 19.0467 22.4138 19.168 22.3011 19.298C22.1884 19.428 22.0714 19.558 21.9501 19.688C21.8288 19.8093 21.7031 19.9177 21.5731 20.013C21.4431 20.117 21.3088 20.1993 21.1701 20.26C20.9014 20.364 20.6674 20.377 20.4681 20.299C20.2774 20.221 20.1388 20.0953 20.0521 19.922C19.9654 19.7487 19.9438 19.5493 19.9871 19.324C20.0304 19.09 20.1561 18.869 20.3641 18.661C20.5201 18.4963 20.6804 18.3317 20.8451 18.167C21.0184 18.0023 21.1874 17.8333 21.3521 17.66C21.6294 17.3913 21.8894 17.1183 22.1321 16.841C22.3748 16.5637 22.6044 16.2733 22.8211 15.97C22.9338 15.8053 22.9944 15.645 23.0031 15.489C23.0118 15.333 22.9858 15.1857 22.9251 15.047C22.8644 14.9083 22.7821 14.774 22.6781 14.644C22.5741 14.514 22.4701 14.3883 22.3661 14.267C22.0628 13.8943 21.7464 13.539 21.4171 13.201C21.0964 12.863 20.7541 12.5423 20.3901 12.239C20.2428 12.0917 20.1258 11.979 20.0391 11.901C19.9524 11.8143 19.8918 11.745 19.8571 11.693C19.7704 11.5977 19.7098 11.4893 19.6751 11.368C19.6404 11.2467 19.6231 11.121 19.6231 10.991Z" fill="currentColor"/>
</svg>
