<svg width="32" height="32" viewBox="0 0 32 32" fill="none" xmlns="http://www.w3.org/2000/svg">
<g clip-path="url(#clip0_205_146)">
<path d="M12.4 15C12.0688 14.4492 11.4406 14.3359 11 14.75C10.5594 15.1641 10.4688 15.9492 10.8 16.5L11.9906 18.4844C12.1406 18.7344 12.1187 19.082 11.9437 19.3008L11.5437 19.8008C11.3344 20.0625 10.9938 20.043 10.8063 19.7578L8 15.5469V9.75C8 9.05859 7.55313 8.5 7 8.5C6.44687 8.5 6 9.05859 6 9.75V18.2812C6 18.707 6.11562 19.1211 6.32812 19.4531L9.58125 24.6992C9.7375 24.9531 9.84375 25.2422 9.90625 25.5469C9.9625 25.8164 10.1594 26 10.3844 26H14.5C14.775 26 15 25.7188 15 25.375V21C15 19.918 14.7187 18.8672 14.2 18L12.4 15V15ZM25 8.5C24.4469 8.5 24 9.05859 24 9.75V15.5469L21.1938 19.7578C21.0063 20.0391 20.6625 20.0586 20.4563 19.8008L20.0562 19.3008C19.8812 19.082 19.8594 18.7344 20.0094 18.4844L21.2 16.5C21.5312 15.9492 21.4406 15.1641 21 14.75C20.5594 14.3359 19.9313 14.4492 19.6 15L17.8 18C17.2813 18.8672 17 19.918 17 21V25.375C17 25.7188 17.225 26 17.5 26H21.6156C21.8375 26 22.0375 25.8164 22.0938 25.5469C22.1562 25.2422 22.2625 24.9531 22.4188 24.6992L25.6719 19.4531C25.8844 19.1211 26 18.707 26 18.2812V9.75C26 9.05859 25.5531 8.5 25 8.5Z" fill="currentColor"/>
</g>
<defs>
<clipPath id="clip0_205_146">
<rect width="20" height="20" fill="white" transform="translate(6 6)"/>
</clipPath>
</defs>
</svg>
