<svg width="32" height="32" viewBox="0 0 32 32" fill="none" xmlns="http://www.w3.org/2000/svg">
<circle cx="16" cy="16" r="15.5" stroke="currentColor"/>
<path d="M21.3773 15.5689C21.3688 13.9302 22.0744 12.6934 23.5027 11.7825C22.7035 10.5814 21.4963 9.92054 19.9022 9.79105C18.3932 9.66603 16.7439 10.7153 16.1403 10.7153C15.5027 10.7153 14.0404 9.8357 12.8927 9.8357C10.5207 9.87589 8 11.8227 8 15.7832C8 16.9531 8.20404 18.1616 8.61211 19.4089C9.15622 21.0476 11.1201 25.0661 13.169 24.9992C14.2402 24.9724 14.9968 24.1999 16.3911 24.1999C17.7428 24.1999 18.4442 24.9992 19.6387 24.9992C21.7046 24.9679 23.4814 21.3155 24 19.6723C21.2285 18.3015 21.3773 15.6537 21.3773 15.5689V15.5689ZM18.9713 8.2372C20.1318 6.7905 20.0255 5.4733 19.9915 5C18.9671 5.06251 17.7811 5.73228 17.1052 6.55832C16.3613 7.44241 15.9235 8.53636 16.017 9.76872C17.1265 9.85803 18.1382 9.2597 18.9713 8.2372V8.2372Z" fill="currentColor"/>
</svg>
