<svg width="32" height="32" viewBox="0 0 32 32" fill="none" xmlns="http://www.w3.org/2000/svg">
<g clip-path="url(#clip0_205_142)">
<path d="M15.2942 12.7641L17.5554 13.4344C17.6322 13.4546 17.7009 13.5028 17.7509 13.5714C17.8008 13.6401 17.8292 13.7254 17.8317 13.8141C17.8317 14.0297 17.6613 14.2078 17.4517 14.2078H15.9683C15.8085 14.2073 15.6502 14.1723 15.5021 14.1047C15.2837 14.0016 15.0321 14.025 14.8646 14.1984L14.0729 15.0187C14.0363 15.0548 14.0047 15.0968 13.9792 15.1434C13.9465 15.2038 13.9247 15.2707 13.9152 15.3406C13.9056 15.4104 13.9084 15.4816 13.9234 15.5502C13.9385 15.6188 13.9654 15.6834 14.0027 15.7402C14.04 15.797 14.087 15.8449 14.1408 15.8813C14.5793 16.1773 15.0701 16.3613 15.5788 16.4203V17.25C15.5788 17.6625 15.905 18 16.3025 18H17.0263C17.4242 18 17.7504 17.6625 17.7504 17.25V16.425C19.1225 16.2562 20.1604 14.9719 19.9796 13.4719C19.8483 12.3937 19.0438 11.5359 18.0396 11.2359L15.7783 10.5656C15.7015 10.5454 15.6328 10.4972 15.5829 10.4286C15.5329 10.3599 15.5045 10.2746 15.5021 10.1859C15.5021 9.97031 15.6725 9.79219 15.8821 9.79219H17.3654C17.5258 9.79247 17.6847 9.82748 17.8333 9.89531C18.0513 9.99844 18.3033 9.975 18.4708 9.80156L19.2625 8.98125C19.2979 8.94596 19.3284 8.90487 19.3529 8.85938C19.3859 8.79908 19.4079 8.73204 19.4177 8.66212C19.4275 8.59219 19.4249 8.52078 19.41 8.452C19.3951 8.38323 19.3683 8.31845 19.331 8.26141C19.2938 8.20437 19.2468 8.1562 19.1929 8.11969C18.7543 7.82369 18.2633 7.63967 17.7546 7.58063V6.75C17.7546 6.3375 17.4288 6 17.0308 6H16.3071C15.9092 6 15.5833 6.3375 15.5833 6.75V7.575C14.2129 7.74375 13.1729 9.02812 13.3538 10.5281C13.4846 11.6062 14.2917 12.4641 15.2942 12.7641ZM27.5529 21.3797C27.0613 20.8781 26.2946 20.9109 25.7779 21.3797L21.9279 24.8438C21.4553 25.2703 20.8671 25.5019 20.2613 25.5H15.3333C15.1565 25.5 14.987 25.421 14.8619 25.2803C14.7369 25.1397 14.6667 24.9489 14.6667 24.75C14.6667 24.5511 14.7369 24.3603 14.8619 24.2197C14.987 24.079 15.1565 24 15.3333 24H18.5954C19.2579 24 19.875 23.4891 19.9808 22.7531C19.9939 22.6686 20.0003 22.583 20 22.4972C19.9993 22.0999 19.8586 21.719 19.6086 21.4383C19.3586 21.1576 19.0199 21 18.6667 21H12C10.8757 21.0003 9.78561 21.4354 8.9125 22.2323L6.975 24H4.66667C4.48986 24 4.32029 24.079 4.19526 24.2197C4.07024 24.3603 4 24.5511 4 24.75V29.25C4 29.4489 4.07024 29.6397 4.19526 29.7803C4.32029 29.921 4.48986 30 4.66667 30H19.5321C20.1378 30.0005 20.7256 29.7691 21.1988 29.3438L27.5 23.6719C27.6516 23.5355 27.7749 23.3635 27.8612 23.168C27.9476 22.9724 27.995 22.758 28.0001 22.5397C28.0051 22.3214 27.9678 22.1045 27.8906 21.9042C27.8135 21.7038 27.6984 21.5248 27.5533 21.3797H27.5529Z" fill="currentColor"/>
</g>
<defs>
<clipPath id="clip0_205_142">
<rect width="24" height="24" fill="white" transform="translate(4 4)"/>
</clipPath>
</defs>
</svg>
