<svg width="32" height="32" viewBox="0 0 32 32" fill="none" xmlns="http://www.w3.org/2000/svg">
<g clip-path="url(#clip0_205_145)">
<path d="M14.875 10.375L15.4375 9.25L16.5625 8.6875L15.4375 8.125L14.875 7L14.3125 8.125L13.1875 8.6875L14.3125 9.25L14.875 10.375ZM9.8125 12.625L10.7498 10.7501L12.625 9.8125L10.7498 8.87488L9.8125 7L8.87523 8.87488L7 9.8125L8.87523 10.7501L9.8125 12.625ZM22.1875 17.125L21.2502 18.9999L19.375 19.9375L21.2502 20.8751L22.1875 22.75L23.1248 20.8751L25 19.9375L23.1248 18.9999L22.1875 17.125ZM24.6702 10.3128L21.6872 7.32977C21.4679 7.10969 21.1799 7 20.892 7C20.6041 7 20.3161 7.10969 20.0964 7.32977L7.32977 20.0964C6.89031 20.5359 6.89031 21.2481 7.32977 21.6872L10.3128 24.6702C10.5325 24.89 10.8204 24.9997 11.108 24.9997C11.3959 24.9997 11.6839 24.89 11.9036 24.6702L24.6702 11.9032C25.1097 11.4645 25.1097 10.7519 24.6702 10.3128V10.3128ZM19.6369 14.1529L17.8471 12.3631L20.8916 9.31855L22.6814 11.1084L19.6369 14.1529V14.1529Z" fill="currentColor"/>
</g>
<defs>
<clipPath id="clip0_205_145">
<rect width="18" height="18" fill="white" transform="translate(7 7)"/>
</clipPath>
</defs>
</svg>
