<svg width="15" height="15" viewBox="0 0 15 15" fill="none" xmlns="http://www.w3.org/2000/svg">
<g clip-path="url(#clip0_2_20)">
<path d="M1.02005 7.12123V12.489H3.29255L3.4073 12.5025C5.51705 12.9945 6.91505 13.3492 7.6118 13.569C8.5373 13.8607 8.8823 13.932 9.51005 13.974C9.97955 14.0062 10.5128 13.8255 10.7558 13.578C10.8901 13.4415 10.9906 13.161 11.0303 12.726C11.0385 12.6348 11.0711 12.5474 11.1247 12.4732C11.1783 12.3989 11.2509 12.3403 11.3348 12.3037C11.5216 12.2227 11.6768 12.0907 11.8066 11.8987C11.9266 11.7232 12.0046 11.3962 12.0188 10.923C12.0213 10.836 12.046 10.7511 12.0905 10.6762C12.135 10.6014 12.1978 10.5392 12.2731 10.4955C12.7096 10.2427 12.9256 9.95773 12.9706 9.62323C13.0201 9.25348 12.9001 8.83723 12.5858 8.36323C12.5121 8.25207 12.4846 8.11653 12.5093 7.98543C12.5339 7.85433 12.6087 7.73802 12.7178 7.66123C13.0186 7.44973 13.1836 7.15573 13.2248 6.73873C13.2908 6.07423 12.8671 5.58298 11.9078 5.48473C11.0535 5.40024 10.1909 5.47216 9.3623 5.69698C9.26832 5.72155 9.16927 5.71875 9.07681 5.68893C8.98435 5.65912 8.90234 5.60351 8.84041 5.52866C8.77849 5.45381 8.73922 5.36284 8.72725 5.26643C8.71527 5.17003 8.73107 5.07221 8.7728 4.98448C9.1478 4.19098 9.3563 3.53623 9.40505 3.02923C9.4688 2.35648 9.31355 1.86898 8.95055 1.46698C8.6753 1.16248 8.23505 0.988483 8.07005 1.02448C7.85255 1.07098 7.7108 1.19698 7.5263 1.63798C7.41755 1.89898 7.36505 2.12098 7.27505 2.63923C7.1888 3.13123 7.14155 3.35323 7.0433 3.64423C6.74705 4.52623 6.0203 5.44048 5.04455 6.07123C4.3607 6.51277 3.61955 6.85849 2.8418 7.09873C2.79321 7.11371 2.74265 7.1213 2.6918 7.12123H1.02005ZM0.988554 13.5112C0.746304 13.518 0.528804 13.464 0.346554 13.3365C0.114054 13.1737 0.00455359 12.9172 0.00230359 12.6217L0.00455359 7.12948C-0.0209464 6.83698 0.0653036 6.56848 0.269304 6.36898C0.460554 6.18148 0.710304 6.09298 0.974304 6.09898H2.61305C3.27595 5.88776 3.90794 5.58967 4.49255 5.21248C5.27855 4.70398 5.85755 3.97498 6.0788 3.31798C6.15455 3.09148 6.19505 2.90398 6.27155 2.46298C6.37505 1.87123 6.43955 1.59598 6.58805 1.24198C6.89555 0.505483 7.29905 0.145483 7.85555 0.0247333C8.40305 -0.0937667 9.2003 0.221983 9.7043 0.779983C10.2631 1.39798 10.5098 2.17123 10.4183 3.12673C10.3793 3.53773 10.2653 3.99748 10.0778 4.50973C10.7181 4.41642 11.3675 4.40231 12.0113 4.46773C13.5166 4.62148 14.3618 5.60173 14.2388 6.84073C14.1848 7.37473 13.9913 7.82848 13.6621 8.18473C13.9388 8.71798 14.0491 9.24523 13.9801 9.75973C13.9006 10.3522 13.5706 10.8457 13.0216 11.229C12.9788 11.7487 12.8596 12.1635 12.6481 12.474C12.4814 12.7248 12.264 12.9379 12.0098 13.0995C11.9288 13.6125 11.7586 14.0137 11.4803 14.2957C11.0191 14.7652 10.1948 15.045 9.4418 14.994C8.72705 14.946 8.30405 14.859 7.30655 14.544C6.6488 14.3362 5.2868 13.9912 3.23405 13.5112H0.987804H0.988554ZM2.2643 6.88798C2.26411 6.82088 2.27715 6.7544 2.30269 6.69235C2.32824 6.6303 2.36577 6.57391 2.41315 6.52639C2.46053 6.47887 2.51681 6.44117 2.57879 6.41545C2.64076 6.38972 2.7072 6.37648 2.7743 6.37648C2.84128 6.37668 2.90756 6.39007 2.96936 6.41588C3.03116 6.44169 3.08727 6.47942 3.13449 6.52692C3.18171 6.57442 3.21911 6.63075 3.24456 6.6927C3.27 6.75465 3.283 6.82101 3.2828 6.88798V12.6465C3.2829 12.7135 3.26981 12.7798 3.24427 12.8417C3.21873 12.9036 3.18125 12.9599 3.13396 13.0073C3.08667 13.0548 3.0305 13.0924 2.96867 13.1181C2.90683 13.1438 2.84053 13.1571 2.77355 13.1572C2.70658 13.1571 2.64028 13.1438 2.57844 13.1181C2.5166 13.0924 2.46044 13.0548 2.41315 13.0073C2.36586 12.9599 2.32838 12.9036 2.30284 12.8417C2.2773 12.7798 2.2642 12.7135 2.2643 12.6465V6.88798Z" fill="#4B587C"/>
</g>
<defs>
<clipPath id="clip0_2_20">
<rect width="15" height="15" fill="white"/>
</clipPath>
</defs>
</svg>
